<svg width="82" height="20" viewBox="0 0 82 20" fill="none" xmlns="http://www.w3.org/2000/svg">
<g opacity="0.22">
<path d="M14.3207 9.99979C12.8183 11.6545 10.635 12.6959 8.20496 12.6959C5.77492 12.6959 3.59162 11.6545 2.08923 9.99979C3.59162 8.34507 5.77492 7.30371 8.20496 7.30371C10.635 7.30371 12.8183 8.34507 14.3207 9.99979Z" fill="white"/>
<path fill-rule="evenodd" clip-rule="evenodd" d="M0 15.3919C0 10.9249 3.67349 7.30371 8.20497 7.30371C5.77493 7.30371 3.59164 8.34507 2.08926 9.99979C3.59164 11.6545 5.77495 12.6959 8.20499 12.6959C10.635 12.6959 12.8183 11.6545 14.3207 9.9998C15.6199 11.4308 16.4099 13.3204 16.4099 15.3919V18.4475C16.4099 18.8446 16.0834 19.1665 15.6806 19.1665H0.72933C0.326532 19.1665 0 18.8446 0 18.4475V15.3919ZM14.3207 9.9998C14.3207 9.9998 14.3207 9.9998 14.3207 9.9998V9.9998Z" fill="#7CD4FD"/>
<path fill-rule="evenodd" clip-rule="evenodd" d="M5.12738 12.108C3.95582 11.6404 2.91876 10.9138 2.08926 10.0002C3.59164 8.34545 5.77495 7.30408 8.20498 7.30408C10.635 7.30408 12.8183 8.34544 14.3207 10.0002C14.3207 10.0002 14.3207 10.0002 14.3207 10.0002C15.6199 8.56919 16.4099 6.67955 16.4099 4.60801V1.55245C16.4099 1.15538 16.0834 0.833497 15.6806 0.833497L0.729331 0.833496C0.326533 0.833496 3.06194e-07 1.15538 2.70981e-07 1.55245L0 4.60801C-5.45022e-07 8.00214 2.12082 10.908 5.12738 12.108Z" fill="#0BA5EC"/>
<path d="M29.2258 6.0232V14.1665H27.5689V10.7015H24.0302V14.1665H22.3733V6.0232H24.0302V9.37154H27.5689V6.0232H29.2258Z" fill="#101828"/>
<path d="M33.768 14.2715C33.1368 14.2715 32.5688 14.1354 32.0638 13.8632C31.5588 13.5832 31.1604 13.1904 30.8684 12.6849C30.5844 12.1793 30.4424 11.596 30.4424 10.9349C30.4424 10.2738 30.5884 9.69043 30.8803 9.18487C31.1801 8.67931 31.5864 8.29043 32.0993 8.0182C32.6121 7.7382 33.1842 7.5982 33.8154 7.5982C34.4466 7.5982 35.0186 7.7382 35.5315 8.0182C36.0443 8.29043 36.4467 8.67931 36.7386 9.18487C37.0385 9.69043 37.1884 10.2738 37.1884 10.9349C37.1884 11.596 37.0345 12.1793 36.7268 12.6849C36.427 13.1904 36.0167 13.5832 35.496 13.8632C34.9831 14.1354 34.4071 14.2715 33.768 14.2715ZM33.768 12.8482C34.0679 12.8482 34.348 12.7782 34.6083 12.6382C34.8766 12.4904 35.0896 12.2726 35.2474 11.9849C35.4052 11.6971 35.4841 11.3471 35.4841 10.9349C35.4841 10.3204 35.3184 9.84987 34.987 9.5232C34.6636 9.18876 34.2651 9.02154 33.7917 9.02154C33.3183 9.02154 32.9199 9.18876 32.5964 9.5232C32.2808 9.84987 32.123 10.3204 32.123 10.9349C32.123 11.5493 32.2768 12.0238 32.5845 12.3582C32.9001 12.6849 33.2946 12.8482 33.768 12.8482Z" fill="#101828"/>
<path d="M44.5935 7.7032V14.1665H42.9248V13.3499C42.7117 13.6299 42.4316 13.8515 42.0845 14.0149C41.7452 14.1704 41.3744 14.2482 40.972 14.2482C40.4591 14.2482 40.0054 14.1432 39.6109 13.9332C39.2164 13.7154 38.9048 13.4004 38.676 12.9882C38.4551 12.5682 38.3446 12.0704 38.3446 11.4949V7.7032H40.0015V11.2615C40.0015 11.7749 40.1317 12.1715 40.3921 12.4515C40.6524 12.7238 41.0075 12.8599 41.4572 12.8599C41.9148 12.8599 42.2738 12.7238 42.5342 12.4515C42.7946 12.1715 42.9248 11.7749 42.9248 11.2615V7.7032H44.5935Z" fill="#101828"/>
<path d="M47.8852 8.70654C48.0982 8.36431 48.3744 8.09598 48.7137 7.90154C49.0608 7.70709 49.4553 7.60987 49.8972 7.60987V9.32487H49.4593C48.9385 9.32487 48.544 9.44543 48.2758 9.68654C48.0154 9.92765 47.8852 10.3476 47.8852 10.9465V14.1665H46.2283V7.7032H47.8852V8.70654Z" fill="#101828"/>
<path d="M53.5814 7.5982C54.0706 7.5982 54.5006 7.69543 54.8714 7.88987C55.2422 8.07654 55.5342 8.32154 55.7472 8.62487V7.7032H57.4159V14.2132C57.4159 14.8121 57.2936 15.3449 57.049 15.8115C56.8045 16.286 56.4376 16.6593 55.9484 16.9315C55.4592 17.2115 54.8675 17.3515 54.1731 17.3515C53.2421 17.3515 52.4768 17.1376 51.8771 16.7099C51.2854 16.2821 50.9501 15.6988 50.8712 14.9599H52.5162C52.603 15.2554 52.7884 15.4888 53.0725 15.6599C53.3644 15.8388 53.7155 15.9282 54.1258 15.9282C54.6071 15.9282 54.9976 15.7843 55.2975 15.4965C55.5973 15.2165 55.7472 14.7888 55.7472 14.2132V13.2099C55.5342 13.5132 55.2383 13.766 54.8596 13.9682C54.4887 14.1704 54.0627 14.2715 53.5814 14.2715C53.0291 14.2715 52.5241 14.1315 52.0665 13.8515C51.6089 13.5715 51.2459 13.1788 50.9777 12.6732C50.7173 12.1599 50.5871 11.5726 50.5871 10.9115C50.5871 10.2582 50.7173 9.67876 50.9777 9.1732C51.2459 8.66765 51.6049 8.27876 52.0547 8.00654C52.5123 7.73431 53.0212 7.5982 53.5814 7.5982ZM55.7472 10.9349C55.7472 10.5382 55.6683 10.1999 55.5105 9.91987C55.3527 9.63209 55.1397 9.41431 54.8714 9.26654C54.6031 9.11098 54.3152 9.0332 54.0074 9.0332C53.6997 9.0332 53.4157 9.10709 53.1553 9.25487C52.8949 9.40265 52.6819 9.62043 52.5162 9.9082C52.3584 10.1882 52.2795 10.5226 52.2795 10.9115C52.2795 11.3004 52.3584 11.6426 52.5162 11.9382C52.6819 12.226 52.8949 12.4476 53.1553 12.6032C53.4236 12.7588 53.7076 12.8365 54.0074 12.8365C54.3152 12.8365 54.6031 12.7626 54.8714 12.6149C55.1397 12.4593 55.3527 12.2415 55.5105 11.9615C55.6683 11.6738 55.7472 11.3315 55.7472 10.9349Z" fill="#101828"/>
<path d="M60.6911 5.5332V14.1665H59.0342V5.5332H60.6911Z" fill="#101828"/>
<path d="M61.9021 10.9115C61.9021 10.2582 62.0322 9.67876 62.2926 9.1732C62.5609 8.66765 62.9199 8.27876 63.3696 8.00654C63.8272 7.73431 64.3361 7.5982 64.8963 7.5982C65.3855 7.5982 65.8116 7.69543 66.1745 7.88987C66.5453 8.08431 66.8412 8.32931 67.0621 8.62487V7.7032H68.7309V14.1665H67.0621V13.2215C66.8491 13.5249 66.5532 13.7776 66.1745 13.9799C65.8037 14.1743 65.3737 14.2715 64.8845 14.2715C64.3322 14.2715 63.8272 14.1315 63.3696 13.8515C62.9199 13.5715 62.5609 13.1788 62.2926 12.6732C62.0322 12.1599 61.9021 11.5726 61.9021 10.9115ZM67.0621 10.9349C67.0621 10.5382 66.9832 10.1999 66.8254 9.91987C66.6676 9.63209 66.4546 9.41431 66.1863 9.26654C65.9181 9.11098 65.6301 9.0332 65.3224 9.0332C65.0147 9.0332 64.7306 9.10709 64.4703 9.25487C64.2099 9.40265 63.9969 9.62043 63.8312 9.9082C63.6734 10.1882 63.5945 10.5226 63.5945 10.9115C63.5945 11.3004 63.6734 11.6426 63.8312 11.9382C63.9969 12.226 64.2099 12.4476 64.4703 12.6032C64.7385 12.7588 65.0226 12.8365 65.3224 12.8365C65.6301 12.8365 65.9181 12.7626 66.1863 12.6149C66.4546 12.4593 66.6676 12.2415 66.8254 11.9615C66.9832 11.6738 67.0621 11.3315 67.0621 10.9349Z" fill="#101828"/>
<path d="M72.8582 14.2715C72.3217 14.2715 71.8404 14.1782 71.4143 13.9915C70.9882 13.7971 70.649 13.5365 70.3965 13.2099C70.1519 12.8832 70.0178 12.5215 69.9941 12.1249H71.6628C71.6944 12.3738 71.8167 12.5799 72.0297 12.7432C72.2506 12.9065 72.5228 12.9882 72.8463 12.9882C73.1619 12.9882 73.4065 12.926 73.5801 12.8015C73.7616 12.6771 73.8523 12.5176 73.8523 12.3232C73.8523 12.1132 73.7419 11.9576 73.5209 11.8565C73.3079 11.7476 72.9647 11.631 72.4913 11.5065C72.0021 11.3899 71.5997 11.2693 71.2841 11.1449C70.9764 11.0204 70.7081 10.8299 70.4793 10.5732C70.2584 10.3165 70.1479 9.97043 70.1479 9.53487C70.1479 9.17709 70.2505 8.85043 70.4557 8.55487C70.6687 8.25931 70.9685 8.02598 71.3551 7.85487C71.7496 7.68376 72.2112 7.5982 72.7398 7.5982C73.5209 7.5982 74.1442 7.79265 74.6098 8.18154C75.0753 8.56265 75.3317 9.07987 75.379 9.7332H73.7931C73.7695 9.47654 73.659 9.27431 73.4618 9.12654C73.2724 8.97098 73.016 8.8932 72.6925 8.8932C72.3927 8.8932 72.1599 8.94765 71.9942 9.05654C71.8364 9.16543 71.7575 9.31709 71.7575 9.51154C71.7575 9.72931 71.868 9.89654 72.0889 10.0132C72.3098 10.1221 72.653 10.2349 73.1185 10.3515C73.5919 10.4682 73.9825 10.5888 74.2902 10.7132C74.5979 10.8376 74.8622 11.0321 75.0832 11.2965C75.312 11.5532 75.4303 11.8954 75.4382 12.3232C75.4382 12.6965 75.3317 13.031 75.1187 13.3265C74.9135 13.6221 74.6137 13.8554 74.2192 14.0265C73.8326 14.1899 73.3789 14.2715 72.8582 14.2715Z" fill="#101828"/>
<path d="M79.3073 14.2715C78.7708 14.2715 78.2895 14.1782 77.8635 13.9915C77.4374 13.7971 77.0981 13.5365 76.8457 13.2099C76.6011 12.8832 76.4669 12.5215 76.4433 12.1249H78.112C78.1436 12.3738 78.2659 12.5799 78.4789 12.7432C78.6998 12.9065 78.972 12.9882 79.2955 12.9882C79.6111 12.9882 79.8557 12.926 80.0293 12.8015C80.2108 12.6771 80.3015 12.5176 80.3015 12.3232C80.3015 12.1132 80.191 11.9576 79.9701 11.8565C79.7571 11.7476 79.4139 11.631 78.9405 11.5065C78.4513 11.3899 78.0489 11.2693 77.7333 11.1449C77.4256 11.0204 77.1573 10.8299 76.9285 10.5732C76.7076 10.3165 76.5971 9.97043 76.5971 9.53487C76.5971 9.17709 76.6997 8.85043 76.9048 8.55487C77.1179 8.25931 77.4177 8.02598 77.8043 7.85487C78.1988 7.68376 78.6604 7.5982 79.189 7.5982C79.9701 7.5982 80.5934 7.79265 81.0589 8.18154C81.5244 8.56265 81.7809 9.07987 81.8282 9.7332H80.2423C80.2186 9.47654 80.1082 9.27431 79.9109 9.12654C79.7216 8.97098 79.4651 8.8932 79.1417 8.8932C78.8418 8.8932 78.6091 8.94765 78.4434 9.05654C78.2856 9.16543 78.2067 9.31709 78.2067 9.51154C78.2067 9.72931 78.3171 9.89654 78.5381 10.0132C78.759 10.1221 79.1022 10.2349 79.5677 10.3515C80.0411 10.4682 80.4317 10.5888 80.7394 10.7132C81.0471 10.8376 81.3114 11.0321 81.5323 11.2965C81.7611 11.5532 81.8795 11.8954 81.8874 12.3232C81.8874 12.6965 81.7809 13.031 81.5678 13.3265C81.3627 13.6221 81.0629 13.8554 80.6684 14.0265C80.2818 14.1899 79.8281 14.2715 79.3073 14.2715Z" fill="#101828"/>
</g>
</svg>
