<svg width="53" height="53" viewBox="0 0 53 53" fill="none" xmlns="http://www.w3.org/2000/svg">
<path d="M34.7812 26.5H38.0938V29.8125H34.7812V26.5ZM14.9062 26.5H28.1562V29.8125H14.9062V26.5ZM34.7812 19.875H38.0938V23.1875H34.7812V19.875ZM14.9062 19.875H28.1562V23.1875H14.9062V19.875ZM14.9062 13.25H38.0938V16.5625H14.9062V13.25Z" fill="#FEC84B"/>
<path d="M41.4062 3.3125H11.5938C10.7155 3.31338 9.87345 3.66265 9.25243 4.28368C8.6314 4.9047 8.28213 5.74674 8.28125 6.625V48.0312C8.28125 48.4705 8.45575 48.8918 8.76635 49.2024C9.07696 49.513 9.49824 49.6875 9.9375 49.6875H11.5938C11.8509 49.6876 12.1045 49.6278 12.3345 49.5128C12.5645 49.3978 12.7646 49.2308 12.9188 49.025L16.5625 44.1672L20.2062 49.025C20.3671 49.2209 20.5693 49.3787 20.7984 49.487C21.0275 49.5954 21.2778 49.6516 21.5312 49.6516C21.7847 49.6516 22.035 49.5954 22.2641 49.487C22.4932 49.3787 22.6954 49.2209 22.8563 49.025L26.5 44.1672L30.1438 49.025C30.3046 49.2209 30.5068 49.3787 30.7359 49.487C30.965 49.5954 31.2153 49.6516 31.4688 49.6516C31.7222 49.6516 31.9725 49.5954 32.2016 49.487C32.4307 49.3787 32.6329 49.2209 32.7937 49.025L36.4375 44.1672L40.0813 49.025C40.2355 49.2307 40.4356 49.3977 40.6656 49.5126C40.8955 49.6276 41.1491 49.6875 41.4062 49.6875H43.0625C43.5018 49.6875 43.923 49.513 44.2336 49.2024C44.5443 48.8918 44.7188 48.4705 44.7188 48.0312V6.625C44.7179 5.74674 44.3686 4.9047 43.7476 4.28368C43.1265 3.66265 42.2845 3.31338 41.4062 3.3125ZM41.4062 45.2703L37.7625 40.4125C37.6017 40.2166 37.3995 40.0588 37.1703 39.9505C36.9412 39.8421 36.6909 39.7859 36.4375 39.7859C36.1841 39.7859 35.9338 39.8421 35.7047 39.9505C35.4755 40.0588 35.2733 40.2166 35.1125 40.4125L31.4688 45.2703L27.825 40.4125C27.6642 40.2166 27.462 40.0588 27.2328 39.9505C27.0037 39.8421 26.7534 39.7859 26.5 39.7859C26.2466 39.7859 25.9963 39.8421 25.7672 39.9505C25.538 40.0588 25.3358 40.2166 25.175 40.4125L21.5312 45.2703L17.8875 40.4125C17.7267 40.2166 17.5245 40.0588 17.2953 39.9505C17.0662 39.8421 16.8159 39.7859 16.5625 39.7859C16.3091 39.7859 16.0588 39.8421 15.8297 39.9505C15.6005 40.0588 15.3983 40.2166 15.2375 40.4125L11.5938 45.2703V6.625H41.4062V45.2703Z" fill="#FEC84B"/>
</svg>
