<svg width="278" height="282" viewBox="0 0 278 282" fill="none" xmlns="http://www.w3.org/2000/svg">
<g opacity="0.76">
<path d="M121.328 275.482C120.378 274.655 118.247 272.025 119.887 268.969C120.493 267.852 121.768 267.296 122.929 266.805C124.121 266.398 125.244 265.808 126.258 265.054C128.064 263.504 128.561 260.919 129.76 258.839C131.138 256.455 133.702 254.672 136.419 254.795C139.525 254.943 142.115 257.508 143.289 260.441C144.462 263.374 144.507 266.624 144.564 269.79C144.564 271.541 144.5 273.518 143.231 274.7C141.962 275.882 140.297 275.798 138.715 275.753L121.736 275.223" fill="#F5F5F5"/>
<path d="M153.806 228.189H109.158L117.201 276.767C117.368 277.782 117.817 278.728 118.495 279.494C119.172 280.261 120.051 280.816 121.028 281.096L121.188 281.141C121.315 281.174 121.443 281.219 121.583 281.245C121.882 281.302 122.185 281.337 122.489 281.348V281.406L122.706 281.374H142.612C142.979 281.374 143.344 281.337 143.703 281.264C144.865 281.082 145.937 280.519 146.754 279.661C147.57 278.804 148.087 277.699 148.225 276.515L152.078 243.03L152.25 241.699L153.781 228.428L153.806 228.189ZM145.381 259.201H140.801L141.26 245.104H146.573L145.381 259.201ZM147.02 245.104H151.402L149.769 259.201H145.827L147.02 245.104ZM133.925 274.823L133.644 262.547H140.246L139.844 274.823H133.925ZM126.788 262.547H133.204L133.479 274.823H127.738L126.788 262.547ZM127.285 274.823H121.908C121.398 271.515 120.735 267.218 119.995 262.547H126.329L127.285 274.823ZM126.565 259.175L125.48 245.078H132.834L133.16 259.175H126.565ZM133.581 259.175L133.262 245.078H140.833L140.367 259.175H133.581ZM133.185 241.731L132.885 228.668H141.369L140.941 241.731H133.185ZM132.739 241.731H125.193L124.185 228.668H132.433L132.739 241.731ZM124.76 241.731H116.768C116.487 239.922 116.219 238.216 115.977 236.679C115.147 231.4 114.835 229.417 114.656 228.668H123.745L124.76 241.731ZM125.021 245.11L126.099 259.207H119.491C119.268 257.779 119.045 256.332 118.853 254.885C118.337 251.558 117.814 248.231 117.329 245.11H125.021ZM119.057 259.207H114.746L112.411 245.11H116.876C117.527 249.432 118.273 254.271 119.045 259.175L119.057 259.207ZM119.58 262.593C120.218 266.831 120.856 270.992 121.494 274.868H117.354L115.326 262.593H119.58ZM140.303 274.868L140.705 262.593H145.113L144.079 274.868H140.303ZM141.388 241.757L141.815 228.693H147.97L146.873 241.757H141.388ZM114.248 228.693C114.427 229.643 115.243 234.779 116.334 241.757H111.869L109.707 228.693H114.248ZM147.976 274.868H144.519L145.553 262.593H149.38L147.976 274.868ZM151.803 241.757H147.307L148.41 228.693H153.315L151.803 241.757Z" fill="#E0E0E0"/>
<path d="M155.982 180.167L131.891 187.771C131.091 188.015 130.23 187.932 129.49 187.539C128.751 187.147 128.193 186.476 127.936 185.672L117.546 151.895C117.305 151.085 117.387 150.212 117.775 149.464C118.163 148.715 118.825 148.15 119.619 147.889L134.895 143.07L150.522 151.682L158.055 176.162C158.295 176.971 158.213 177.844 157.826 178.593C157.438 179.342 156.776 179.907 155.982 180.167Z" fill="#EBEBEB"/>
<path d="M134.895 143.07L137.823 152.574C138.057 153.323 138.576 153.948 139.264 154.311C139.953 154.675 140.756 154.747 141.497 154.512L150.522 151.663L134.895 143.07Z" fill="#E0E0E0"/>
<path d="M135.679 152.839C135.717 152.961 133.255 153.846 130.175 154.815C127.094 155.785 124.575 156.476 124.536 156.353C124.498 156.23 126.966 155.345 130.041 154.376C133.115 153.407 135.647 152.703 135.679 152.839Z" fill="#FAFAFA"/>
<path d="M144.533 155.927C144.571 156.049 140.495 157.445 135.431 159.041C130.367 160.636 126.227 161.838 126.189 161.715C126.15 161.593 130.226 160.197 135.297 158.601C140.368 157.006 144.494 155.804 144.533 155.927Z" fill="#FAFAFA"/>
<path d="M147.569 159.894C147.607 160.016 143.161 161.528 137.638 163.273C132.114 165.017 127.611 166.329 127.573 166.206C127.534 166.083 131.98 164.571 137.504 162.827C143.027 161.082 147.53 159.771 147.569 159.894Z" fill="#FAFAFA"/>
<path d="M148.889 164.125C148.927 164.248 144.481 165.76 138.958 167.504C133.434 169.248 128.931 170.56 128.893 170.437C128.855 170.314 133.3 168.803 138.824 167.058C144.347 165.314 148.831 164.002 148.889 164.125Z" fill="#FAFAFA"/>
<path d="M150.164 168.344C150.203 168.467 145.757 169.979 140.24 171.723C134.723 173.467 130.207 174.779 130.168 174.656C130.13 174.533 134.576 173.028 140.099 171.284C145.623 169.539 150.164 168.241 150.164 168.344Z" fill="#FAFAFA"/>
<path d="M151.472 172.595C151.51 172.718 147.065 174.229 141.548 175.974C136.03 177.718 131.521 179.03 131.483 178.907C131.444 178.784 135.89 177.272 141.407 175.528C146.925 173.784 151.44 172.472 151.472 172.595Z" fill="#FAFAFA"/>
<path d="M258.2 48.3756L234.683 39.1304C233.909 38.8149 233.288 38.2046 232.953 37.4303C232.618 36.6561 232.595 35.7796 232.891 34.9891L245.552 2.03957C245.702 1.64816 245.926 1.29047 246.212 0.98699C246.498 0.683506 246.841 0.440184 247.22 0.270952C247.599 0.10172 248.008 0.00990351 248.422 0.000757881C248.836 -0.00838775 249.248 0.0653171 249.634 0.217654L264.553 6.09688L271.467 22.6556L262.289 46.5602C261.977 47.3445 261.375 47.9739 260.61 48.3133C259.846 48.6527 258.981 48.6751 258.2 48.3756Z" fill="#EBEBEB"/>
<path d="M264.553 6.05811L260.987 15.3357C260.843 15.7011 260.772 16.0918 260.778 16.4853C260.784 16.8787 260.868 17.267 261.023 17.6276C261.178 17.9882 261.403 18.314 261.684 18.586C261.965 18.858 262.296 19.0708 262.658 19.2121L271.467 22.6815L264.553 6.05811Z" fill="#E0E0E0"/>
<path d="M259.157 14.1789C259.112 14.3016 256.644 13.4359 253.64 12.2407C250.636 11.0455 248.237 9.9989 248.282 9.88261C248.327 9.76632 250.802 10.6256 253.806 11.8208C256.81 13.016 259.234 14.0626 259.157 14.1789Z" fill="#FAFAFA"/>
<path d="M264.171 22.1971C264.126 22.3134 260.082 20.8339 255.139 18.8828C250.196 16.9317 246.209 15.2584 246.267 15.1421C246.324 15.0258 250.355 16.5182 255.305 18.4564C260.254 20.3946 264.215 22.0743 264.171 22.1971Z" fill="#FAFAFA"/>
<path d="M264.1 27.2102C264.056 27.333 259.635 25.7049 254.258 23.5793C248.882 21.4537 244.563 19.6383 244.563 19.522C244.563 19.4057 249.028 21.0273 254.405 23.1529C259.782 25.2785 264.145 27.0939 264.1 27.2102Z" fill="#FAFAFA"/>
<path d="M262.512 31.3775C262.467 31.4938 258.047 29.8721 252.67 27.7466C247.293 25.621 242.95 23.8055 242.994 23.6828C243.039 23.56 247.459 25.1946 252.836 27.3137C258.213 29.4328 262.563 31.2224 262.512 31.3775Z" fill="#FAFAFA"/>
<path d="M260.93 35.48C260.879 35.5963 256.465 33.9747 251.089 31.8491C245.712 29.7235 241.362 27.9081 241.406 27.7853C241.451 27.6626 245.871 29.2907 251.254 31.4162C256.638 33.5418 260.975 35.3573 260.93 35.48Z" fill="#FAFAFA"/>
<path d="M259.342 39.6085C259.291 39.7312 254.877 38.1031 249.5 35.984C244.123 33.8649 239.773 32.0236 239.824 31.9202C239.875 31.8169 244.289 33.4256 249.666 35.5512C255.043 37.6767 259.387 39.4922 259.342 39.6085Z" fill="#FAFAFA"/>
<path d="M37.2689 142.695C37.758 142.778 38.1964 143.05 38.4915 143.454C38.7865 143.858 38.9153 144.362 38.8507 144.86C38.755 145.506 38.6594 146.152 38.6211 146.462L36.4525 160.876C36.3975 161.203 36.2205 161.496 35.9581 161.694C35.6957 161.893 35.368 161.981 35.0429 161.942L2.47528 156.922C2.16564 156.865 1.88757 156.695 1.69449 156.443C1.5014 156.191 1.40694 155.876 1.42924 155.559L3.09397 136.881C3.11219 136.711 3.16337 136.547 3.24453 136.398C3.3257 136.248 3.43525 136.117 3.56688 136.01C3.69851 135.904 3.84961 135.825 4.01146 135.778C4.17332 135.731 4.34274 135.717 4.50995 135.737L11.8769 136.874C12.5713 136.986 13.2052 137.341 13.6692 137.876L14.9895 139.42L37.2689 142.695Z" fill="#E0E0E0"/>
<path d="M39.4012 145.012L3.81152 139.528L0.544203 161.283L36.1338 166.767L39.4012 145.012Z" fill="#F5F5F5"/>
<path d="M0.689182 141.047L0.000326393 164.151C-0.00522922 164.348 0.0602972 164.541 0.184691 164.693C0.309084 164.845 0.483855 164.947 0.676425 164.978L35.3552 170.321C35.5574 170.349 35.7628 170.298 35.9289 170.178C36.095 170.058 36.2093 169.878 36.2482 169.675L41.4018 147.256C41.427 147.149 41.4303 147.037 41.4115 146.928C41.3927 146.819 41.3522 146.716 41.2925 146.623C41.2329 146.531 41.1552 146.451 41.0644 146.39C40.9735 146.329 40.8713 146.287 40.764 146.268L1.62041 140.24C1.50524 140.221 1.38742 140.228 1.27513 140.26C1.16284 140.292 1.05878 140.348 0.970166 140.425C0.881555 140.502 0.81052 140.597 0.761999 140.705C0.713477 140.812 0.688629 140.929 0.689182 141.047Z" fill="#EBEBEB"/>
<path d="M84.0221 144.607C77.0059 148.303 71.5908 154.654 67.7127 161.657C63.8347 168.661 61.3344 176.329 58.8597 183.959L56.691 223.26C64.8744 209.156 71.4504 192.572 73.2236 176.31L67.7765 175.813C71.4313 175.25 74.4929 172.582 76.4446 169.391C78.3964 166.199 79.3978 162.549 80.3801 158.937L73.7339 159.945C78.983 156.363 82.6676 150.87 84.0221 144.607Z" fill="#455A64"/>
<g opacity="0.3">
<path opacity="0.3" d="M84.0222 144.607C77.006 148.303 71.5909 154.654 67.7129 161.657C63.8349 168.661 61.3346 176.329 58.8598 183.959L56.6912 223.26C64.8745 209.156 71.4505 192.572 73.2237 176.31L67.7766 175.813C71.4314 175.25 74.493 172.582 76.4447 169.391C78.3965 166.199 79.3979 162.549 80.3801 158.937L73.734 159.945C78.9831 156.363 82.6677 150.87 84.0222 144.607Z" fill="black"/>
</g>
<path d="M55.4794 232.485C55.4794 232.485 37.7095 210.945 37.9072 190.381H45.0892C45.0892 190.381 37.2694 185.187 37.9072 182.279C38.5451 179.372 38.7364 168.344 38.7364 168.344L45.2997 170.011C45.2997 170.011 40.3756 167.517 39.7633 163.55C39.151 159.583 41.1984 141.325 41.1984 141.325C41.1984 141.325 49.1968 149.84 51.6588 158.562C54.1209 167.284 60.5884 177.466 58.675 204.058C56.7615 230.651 55.4794 232.485 55.4794 232.485Z" fill="#455A64"/>
<path d="M64.4851 234.52C64.4851 234.52 83.7412 221.528 88.0147 204.95L82.2423 203.36C82.2423 203.36 89.6348 200.912 89.7687 198.437C89.9027 195.963 92.1223 187.08 92.1223 187.08L86.4903 186.963C86.4903 186.963 90.9551 186.046 92.3328 183.009C93.7105 179.973 95.9493 164.81 95.9493 164.81C95.9493 164.81 87.6575 169.888 83.8305 176.355C80.0035 182.822 72.5792 189.573 68.3568 211.372C64.1343 233.17 64.4851 234.52 64.4851 234.52Z" fill="#455A64"/>
<path d="M46.0519 160.139C46.08 160.21 46.1013 160.283 46.1157 160.358L46.2687 161.004L46.83 163.589C47.0788 164.693 47.3658 166.057 47.6783 167.64C47.9909 169.222 48.3608 171.025 48.718 173.028C49.4834 177.02 50.2871 181.801 51.1099 187.112C51.9327 192.423 52.7108 198.289 53.4252 204.453C54.1396 210.616 54.6626 216.508 55.0772 221.896C55.4917 227.285 55.766 232.098 55.9255 236.162C56.0211 238.197 56.0722 240.038 56.1168 241.647C56.1615 243.255 56.1997 244.657 56.2125 245.794C56.2252 246.932 56.2125 247.791 56.2125 248.411V249.089C56.2223 249.167 56.2223 249.245 56.2125 249.322C56.2043 249.247 56.2043 249.171 56.2125 249.096C56.2125 248.921 56.2125 248.695 56.2125 248.411C56.2125 247.765 56.1615 246.919 56.1232 245.794C56.0849 244.67 56.0467 243.268 55.9701 241.653C55.8936 240.038 55.8426 238.203 55.7277 236.174C55.5364 232.111 55.2175 227.285 54.8093 221.922C54.4011 216.56 53.827 210.681 53.1318 204.517C52.4365 198.354 51.6329 192.5 50.8484 187.183C50.0638 181.866 49.2602 177.098 48.5267 173.099C48.1822 171.096 47.8314 169.293 47.5316 167.704C47.2319 166.115 46.9704 164.752 46.7471 163.64C46.5239 162.529 46.358 161.702 46.2432 161.056C46.1922 160.778 46.1476 160.552 46.122 160.41C46.089 160.322 46.0655 160.231 46.0519 160.139Z" fill="#263238"/>
<path d="M53.0173 245.678C53.0173 245.678 36.7526 226.994 31.7074 215.694L35.5344 214.047C32.7726 214.506 29.9406 213.304 27.7975 211.463C25.6544 209.621 24.0853 207.237 22.5418 204.866L27.5615 204.007C22.9492 202.672 19.0209 199.591 16.5908 195.401C22.5163 196.39 27.8804 199.685 32.2942 203.8C35.8027 207.213 38.9887 210.951 41.8106 214.964C43.231 216.894 44.4675 218.955 45.5036 221.121C48.2208 226.858 53.0237 238.817 53.0173 245.678Z" fill="#455A64"/>
<path d="M88.2957 175.69C88.2782 175.755 88.2525 175.818 88.2191 175.877L87.9704 176.42L86.9818 178.494C86.1079 180.29 84.8769 182.9 83.378 186.137C81.8791 189.374 80.157 193.243 78.2754 197.592C76.3938 201.94 74.4803 206.74 72.5349 211.805C70.5895 216.87 68.8547 221.787 67.3302 226.258C65.8058 230.728 64.5174 234.779 63.5033 238.19C62.4891 241.602 61.6408 244.38 61.0923 246.299L60.4544 248.508C60.3779 248.747 60.3205 248.935 60.2759 249.083C60.2312 249.232 60.2121 249.277 60.2057 249.271C60.2085 249.214 60.2171 249.158 60.2312 249.103C60.2695 248.954 60.3141 248.767 60.3779 248.521C60.5182 247.991 60.7096 247.229 60.9583 246.299C61.4686 244.36 62.234 241.582 63.2736 238.158C64.3133 234.734 65.5635 230.67 67.056 226.187C68.5485 221.703 70.3025 216.812 72.2415 211.721C74.1805 206.63 76.1642 201.823 77.982 197.508C79.7998 193.192 81.6049 189.302 83.1293 186.072C84.6537 182.842 85.923 180.258 86.8287 178.474L87.8747 176.426C87.9895 176.213 88.0788 176.039 88.1554 175.903C88.2319 175.767 88.2957 175.683 88.2957 175.69Z" fill="#263238"/>
<path d="M54.3951 253.689C54.3543 253.579 54.3286 253.464 54.3186 253.347C54.2739 253.082 54.2229 252.753 54.1591 252.352C54.0316 251.493 53.8211 250.246 53.5213 248.721C53.2215 247.196 52.8133 245.381 52.2839 243.397C51.7545 241.414 51.0593 239.256 50.2365 237.027C49.4137 234.798 48.4952 232.737 47.615 230.883C46.7348 229.029 45.8546 227.394 45.0637 226.05C44.2728 224.707 43.6349 223.634 43.1502 222.904L42.6208 222.051C42.5488 221.958 42.4927 221.853 42.455 221.741C42.5379 221.822 42.6108 221.913 42.6718 222.013C42.8313 222.232 43.0226 222.497 43.2522 222.827C43.7561 223.537 44.445 224.597 45.2487 225.934C46.0523 227.272 46.9453 228.893 47.8574 230.741C48.7695 232.589 49.6752 234.676 50.5171 236.911C51.3591 239.146 52.0415 241.349 52.5773 243.288C53.1131 245.226 53.4894 247.106 53.7573 248.65C54.0252 250.194 54.2038 251.441 54.2867 252.307C54.325 252.714 54.3569 253.043 54.3824 253.308C54.4045 253.434 54.4088 253.562 54.3951 253.689Z" fill="#263238"/>
<path d="M75.8514 249.29H40.2605V256.642H75.8514V249.29Z" fill="#1C95D6"/>
<path d="M43.6542 256.648L47.5003 281.38H69.0079L72.5925 256.648H43.6542Z" fill="#1C95D6"/>
<path d="M73.6702 256.648C73.6702 256.739 66.9347 256.816 58.6302 256.816C50.3257 256.816 43.5966 256.739 43.5966 256.648C43.5966 256.558 50.3257 256.48 58.6302 256.48C66.9347 256.48 73.6702 256.552 73.6702 256.648Z" fill="#263238"/>
<path d="M192.159 9.53369H33.231V110.366H192.159V9.53369Z" fill="white"/>
<path d="M192.159 9.53369H33.231V18.7725H192.159V9.53369Z" fill="#455A64"/>
<path d="M192.159 108.369H33.174V126.55H192.159V108.369Z" fill="#F5F5F5"/>
<path d="M65.8559 117.162H67.2783L67.7248 118.105H68.0309L66.6086 115.101H66.5256L65.1033 118.105H65.4094L65.8559 117.162ZM66.5703 115.663L67.1443 116.884H65.9707L66.5703 115.663Z" fill="#263238"/>
<path d="M68.2414 118.751H64.8737V118.991H68.2414V118.751Z" fill="#263238"/>
<path d="M44.9227 114.927H44.6994C44.3768 114.95 44.0748 115.096 43.8546 115.336C43.6343 115.576 43.5123 115.891 43.5131 116.219C43.6718 117.173 44.0816 118.066 44.6994 118.803C44.6994 118.803 44.7823 118.958 44.9227 118.803C45.5405 118.066 45.9503 117.173 46.109 116.219C46.1098 115.891 45.9878 115.576 45.7675 115.336C45.5473 115.096 45.2453 114.95 44.9227 114.927ZM44.8079 116.975C44.6688 116.975 44.5329 116.933 44.4174 116.855C44.3019 116.776 44.212 116.665 44.1591 116.535C44.1062 116.404 44.0926 116.261 44.1202 116.123C44.1478 115.985 44.2153 115.858 44.314 115.759C44.4128 115.66 44.5384 115.593 44.6749 115.566C44.8115 115.54 44.9527 115.555 45.0808 115.609C45.2089 115.664 45.318 115.756 45.3943 115.874C45.4707 115.992 45.5107 116.13 45.5095 116.271C45.5095 116.456 45.4371 116.634 45.3081 116.766C45.1791 116.898 45.0039 116.973 44.8206 116.975H44.8079Z" fill="#263238"/>
<path d="M60.7024 117.95C60.7024 118.144 60.6264 118.33 60.4913 118.467C60.3561 118.603 60.1728 118.68 59.9816 118.68C59.7905 118.68 59.6071 118.603 59.472 118.467C59.3368 118.33 59.2609 118.144 59.2609 117.95V115.592C59.2609 115.467 59.3099 115.347 59.3972 115.259C59.4846 115.17 59.603 115.121 59.7265 115.121C59.85 115.121 59.9684 115.17 60.0557 115.259C60.143 115.347 60.1921 115.467 60.1921 115.592V117.589C60.1793 117.648 60.1472 117.701 60.1009 117.74C60.0546 117.778 59.9969 117.8 59.937 117.802C59.8762 117.801 59.8176 117.779 59.7703 117.74C59.7229 117.702 59.6896 117.648 59.6755 117.589V116.012H59.5032V117.485V117.556C59.5183 117.661 59.5696 117.756 59.6479 117.826C59.7261 117.896 59.8263 117.935 59.9306 117.937C60.0345 117.934 60.134 117.894 60.212 117.825C60.29 117.755 60.3416 117.66 60.3579 117.556V117.517C60.3586 117.507 60.3586 117.496 60.3579 117.485V115.547C60.3579 115.376 60.2907 115.211 60.1711 115.09C60.0515 114.969 59.8893 114.901 59.7201 114.901C59.5509 114.901 59.3887 114.969 59.2691 115.09C59.1495 115.211 59.0823 115.376 59.0823 115.547V118.015C59.1044 118.239 59.208 118.448 59.3729 118.599C59.5379 118.751 59.7525 118.835 59.9752 118.835C60.1977 118.836 60.4123 118.752 60.5766 118.6C60.7408 118.448 60.8426 118.239 60.8618 118.015V116.012H60.6896L60.7024 117.95Z" fill="#263238"/>
<path d="M53.036 116.154L52.3982 114.785L51.7284 116.154L50.2423 116.374L51.3202 117.44L51.0651 118.939L52.3982 118.228L53.7312 118.939L53.4761 117.44L54.554 116.374L53.036 116.154ZM53.4187 118.538L52.3727 117.983L51.3266 118.538L51.518 117.421V117.362L50.6633 116.529L51.8305 116.355L52.3535 115.282L52.8765 116.355L54.0438 116.529L53.2592 117.304L53.2146 117.35L53.4187 118.538Z" fill="#263238"/>
<path d="M79.2826 113.105H79.0657V120.115H79.2826V113.105Z" fill="#263238"/>
<path d="M75.0536 115.586H72.2982V118.558H75.0536V115.586Z" fill="#263238"/>
<path d="M73.1657 114.888V115.114H74.1798V114.888H75.0473V115.347H72.2982V114.888H73.1657Z" fill="#263238"/>
<path d="M74.1797 114.655H73.1655V114.882H74.1797V114.655Z" fill="#263238"/>
<path d="M74.1797 114.888H73.1655V115.115H74.1797V114.888Z" fill="#263238"/>
<path d="M85.5202 117.175L86.3621 116.322L86.4642 116.426L85.5202 117.382L84.5698 116.426L84.6719 116.322L85.5202 117.175Z" fill="#263238"/>
<path d="M183.395 44.9444C183.153 44.9459 182.92 45.042 182.745 45.2129C182.571 45.3837 182.468 45.6162 182.458 45.8619V49.467C182.481 49.8014 182.628 50.1145 182.87 50.3432C183.112 50.5718 183.431 50.699 183.762 50.699C184.093 50.699 184.412 50.5718 184.654 50.3432C184.896 50.1145 185.043 49.8014 185.066 49.467V46.5596H184.811V49.3442C184.791 49.6134 184.671 49.8649 184.475 50.0483C184.279 50.2316 184.022 50.3335 183.756 50.3335C183.489 50.3335 183.232 50.2316 183.037 50.0483C182.841 49.8649 182.721 49.6134 182.7 49.3442V45.8942C182.7 45.7108 182.772 45.535 182.9 45.4053C183.028 45.2757 183.202 45.2029 183.383 45.2029C183.564 45.2029 183.737 45.2757 183.865 45.4053C183.993 45.535 184.065 45.7108 184.065 45.8942V48.8209C184.045 48.9069 183.997 48.9836 183.929 49.0387C183.861 49.0938 183.776 49.124 183.689 49.1245C183.605 49.1188 183.525 49.0863 183.461 49.0317C183.397 48.9771 183.352 48.9033 183.332 48.8209V46.5661H183.076V48.724V48.8209C183.076 48.9922 183.144 49.1566 183.263 49.2777C183.383 49.3989 183.545 49.467 183.714 49.467C183.883 49.467 184.046 49.3989 184.165 49.2777C184.285 49.1566 184.352 48.9922 184.352 48.8209V48.7627C184.352 48.7627 184.352 48.7304 184.352 48.7175V45.8619C184.342 45.6128 184.237 45.3775 184.058 45.2061C183.879 45.0348 183.641 44.9409 183.395 44.9444Z" fill="#263238"/>
<path d="M38.4613 23.9216H37.377V23.521H39.9984V23.9216H38.9078V26.732H38.4613V23.9216Z" fill="#263238"/>
<path d="M39.9537 25.5176C39.9435 25.2601 40.0096 25.0054 40.1434 24.7862C40.2772 24.5671 40.4727 24.3934 40.7048 24.2877C40.9368 24.1819 41.1947 24.1488 41.4454 24.1927C41.6962 24.2366 41.9282 24.3554 42.1117 24.5338C42.2953 24.7123 42.4219 24.9423 42.4754 25.1942C42.5289 25.4462 42.5068 25.7086 42.412 25.9477C42.3171 26.1869 42.1538 26.3918 41.9431 26.5362C41.7323 26.6806 41.4838 26.7579 41.2293 26.7581C41.0634 26.7689 40.897 26.7446 40.7408 26.6867C40.5846 26.6289 40.442 26.5388 40.322 26.4222C40.2021 26.3055 40.1074 26.1648 40.0439 26.0091C39.9805 25.8534 39.9498 25.686 39.9537 25.5176ZM42.0075 25.5176C42.0012 25.3566 41.9483 25.201 41.8553 25.0703C41.7622 24.9395 41.6333 24.8394 41.4845 24.7825C41.3356 24.7255 41.1735 24.7142 41.0184 24.7499C40.8633 24.7856 40.722 24.8669 40.6121 24.9834C40.5023 25.1 40.4287 25.2467 40.4007 25.4054C40.3727 25.564 40.3914 25.7275 40.4545 25.8754C40.5176 26.0233 40.6223 26.1492 40.7556 26.2372C40.8888 26.3252 41.0447 26.3716 41.2038 26.3704C41.3134 26.3734 41.4225 26.3531 41.5239 26.3108C41.6253 26.2685 41.7168 26.2051 41.7926 26.1248C41.8683 26.0444 41.9265 25.9488 41.9636 25.8443C42.0006 25.7397 42.0155 25.6284 42.0075 25.5176Z" fill="#263238"/>
<path d="M44.0551 24.587C44.0551 24.5458 44.0633 24.5049 44.079 24.4668C44.0948 24.4288 44.118 24.3943 44.1471 24.3654C44.1762 24.3366 44.2107 24.3138 44.2486 24.2986C44.2864 24.2834 44.3269 24.2761 44.3677 24.2769C44.4523 24.2769 44.5334 24.311 44.5932 24.3715C44.653 24.4321 44.6866 24.5143 44.6866 24.6C44.6866 24.6856 44.653 24.7678 44.5932 24.8284C44.5334 24.889 44.4523 24.923 44.3677 24.923C44.3247 24.924 44.282 24.9159 44.2423 24.8992C44.2026 24.8824 44.1669 24.8573 44.1374 24.8256C44.1079 24.7939 44.0854 24.7563 44.0712 24.7152C44.057 24.6741 44.0516 24.6304 44.0551 24.587ZM44.0551 26.4412C44.0551 26.4 44.0633 26.3591 44.079 26.321C44.0948 26.283 44.118 26.2485 44.1471 26.2196C44.1762 26.1908 44.2107 26.168 44.2486 26.1528C44.2864 26.1377 44.3269 26.1303 44.3677 26.1311C44.4073 26.1311 44.4465 26.1392 44.483 26.1549C44.5194 26.1707 44.5524 26.1937 44.5798 26.2227C44.6072 26.2517 44.6285 26.286 44.6425 26.3235C44.6565 26.3611 44.6628 26.4011 44.6611 26.4412C44.6628 26.4816 44.6565 26.522 44.6426 26.5599C44.6287 26.5978 44.6075 26.6326 44.5801 26.662C44.5528 26.6915 44.5199 26.7152 44.4834 26.7316C44.447 26.7481 44.4076 26.757 44.3677 26.7578C44.3264 26.7587 44.2854 26.7511 44.2471 26.7355C44.2087 26.7199 44.1739 26.6966 44.1447 26.667C44.1156 26.6375 44.0926 26.6022 44.0772 26.5634C44.0618 26.5246 44.0543 26.483 44.0551 26.4412Z" fill="#263238"/>
<path d="M38.0213 35.8997C38.0184 35.6784 38.0603 35.4589 38.1443 35.2547C38.2283 35.0504 38.3528 34.8657 38.5099 34.712C38.667 34.5583 38.8536 34.4388 39.058 34.3608C39.2625 34.2828 39.4805 34.2481 39.6987 34.2587C39.9231 34.2494 40.1469 34.289 40.3548 34.3748C40.5628 34.4607 40.7501 34.5907 40.9042 34.7562L40.6108 35.0469C40.4724 34.893 40.298 34.7767 40.1038 34.7086C39.9095 34.6405 39.7015 34.6227 39.4988 34.6569C39.296 34.6912 39.1049 34.7763 38.943 34.9045C38.781 35.0327 38.6534 35.2 38.5716 35.391C38.4899 35.5821 38.4566 35.7908 38.475 35.9982C38.4933 36.2056 38.5627 36.405 38.6766 36.5783C38.7906 36.7516 38.9456 36.8932 39.1275 36.9902C39.3094 37.0872 39.5123 37.1366 39.7179 37.1337C39.8854 37.1374 40.0518 37.1047 40.2058 37.0379C40.3598 36.971 40.4979 36.8715 40.6108 36.7461L40.9042 37.0368C40.7495 37.2036 40.5613 37.3349 40.3522 37.4218C40.1432 37.5087 39.9182 37.5493 39.6924 37.5407C39.4747 37.5504 39.2573 37.515 39.0536 37.4366C38.8499 37.3583 38.6642 37.2386 38.5077 37.085C38.3513 36.9313 38.2274 36.747 38.1438 36.5432C38.0601 36.3394 38.0184 36.1204 38.0213 35.8997Z" fill="#263238"/>
<path d="M41.1658 36.3068C41.1618 36.1386 41.1926 35.9715 41.256 35.8161C41.3195 35.6607 41.4143 35.5204 41.5344 35.4043C41.6545 35.2881 41.7972 35.1986 41.9534 35.1415C42.1096 35.0844 42.2758 35.061 42.4414 35.0728C42.6351 35.0607 42.8284 35.1025 43.0004 35.1935C43.1724 35.2846 43.3166 35.4216 43.4173 35.5896L43.092 35.8028C43.0237 35.6946 42.9293 35.6057 42.8177 35.5447C42.7061 35.4836 42.581 35.4524 42.4542 35.454C42.2427 35.4726 42.0458 35.5708 41.9024 35.7293C41.7589 35.8878 41.6794 36.095 41.6794 36.31C41.6794 36.525 41.7589 36.7322 41.9024 36.8907C42.0458 37.0492 42.2427 37.1474 42.4542 37.1661C42.581 37.1676 42.7061 37.1364 42.8177 37.0753C42.9293 37.0143 43.0237 36.9254 43.092 36.8172L43.4173 37.0304C43.3174 37.1996 43.1736 37.3379 43.0015 37.4301C42.8295 37.5224 42.6358 37.5651 42.4414 37.5537C42.2749 37.5646 42.108 37.5401 41.9514 37.4819C41.7947 37.4237 41.6518 37.333 41.5317 37.2156C41.4117 37.0983 41.3171 36.9568 41.2541 36.8003C41.1911 36.6438 41.161 36.4757 41.1658 36.3068Z" fill="#263238"/>
<path d="M44.98 35.3829C44.9792 35.342 44.9865 35.3012 45.0016 35.2632C45.0167 35.2252 45.0392 35.1907 45.0678 35.1617C45.0964 35.1327 45.1305 35.1099 45.168 35.0946C45.2056 35.0794 45.2458 35.0719 45.2862 35.0728C45.3261 35.0728 45.3656 35.0809 45.4024 35.0965C45.4392 35.1122 45.4726 35.1351 45.5005 35.164C45.5284 35.1929 45.5503 35.2272 45.565 35.2647C45.5797 35.3023 45.5868 35.3425 45.586 35.3829C45.5877 35.4239 45.5812 35.4648 45.5669 35.5031C45.5526 35.5414 45.5308 35.5765 45.5028 35.606C45.4748 35.6356 45.4412 35.6591 45.404 35.6752C45.3667 35.6913 45.3267 35.6995 45.2862 35.6995C45.2455 35.6995 45.2051 35.6913 45.1676 35.6753C45.13 35.6593 45.096 35.6359 45.0674 35.6064C45.0389 35.5769 45.0165 35.542 45.0015 35.5036C44.9865 35.4652 44.9792 35.4242 44.98 35.3829ZM44.98 37.2371C44.9792 37.1961 44.9865 37.1554 45.0016 37.1174C45.0167 37.0794 45.0392 37.0448 45.0678 37.0159C45.0964 36.9869 45.1305 36.9641 45.168 36.9488C45.2056 36.9335 45.2458 36.9261 45.2862 36.927C45.3264 36.9261 45.3663 36.9335 45.4035 36.9488C45.4407 36.9642 45.4744 36.9871 45.5025 37.0162C45.5306 37.0452 45.5525 37.0799 45.5669 37.1179C45.5812 37.1559 45.5877 37.1964 45.586 37.2371C45.5877 37.278 45.5812 37.3189 45.5669 37.3573C45.5526 37.3956 45.5308 37.4306 45.5028 37.4602C45.4748 37.4898 45.4412 37.5133 45.404 37.5294C45.3667 37.5454 45.3267 37.5537 45.2862 37.5536C45.2455 37.5537 45.2051 37.5454 45.1676 37.5294C45.13 37.5135 45.096 37.49 45.0674 37.4606C45.0389 37.4311 45.0165 37.3961 45.0015 37.3577C44.9865 37.3194 44.9792 37.2784 44.98 37.2371Z" fill="#263238"/>
<path d="M37.5431 48.0909L37.7089 47.7355C38.0051 47.977 38.3748 48.1071 38.755 48.1038C39.3035 48.1038 39.5395 47.8906 39.5395 47.6128C39.5395 46.8246 37.626 47.322 37.626 46.1333C37.626 45.6358 38.0087 45.2159 38.8379 45.2159C39.1982 45.2071 39.5531 45.306 39.8584 45.5001L39.7053 45.8619C39.4454 45.6961 39.1451 45.6066 38.8379 45.6035C38.3021 45.6035 38.0725 45.8296 38.0725 46.1139C38.0725 46.8956 39.986 46.4046 39.986 47.5805C39.986 48.0715 39.5969 48.4979 38.7613 48.4979C38.3207 48.5115 37.8893 48.3674 37.5431 48.0909Z" fill="#263238"/>
<path d="M42.8115 46.0303V48.4595H42.4033V48.0912C42.3083 48.2184 42.1846 48.3205 42.0425 48.3891C41.9004 48.4577 41.7441 48.4907 41.5868 48.4853C41.4465 48.4998 41.3048 48.4822 41.1721 48.4338C41.0393 48.3855 40.919 48.3077 40.8199 48.206C40.7208 48.1044 40.6454 47.9815 40.5993 47.8465C40.5532 47.7115 40.5376 47.5677 40.5536 47.4258V46.0303H40.9873V47.3806C40.9873 47.8522 41.2233 48.0912 41.6251 48.0912C41.7295 48.099 41.8344 48.083 41.9319 48.0444C42.0295 48.0058 42.1172 47.9456 42.1888 47.8681C42.2604 47.7907 42.3139 47.698 42.3455 47.5968C42.3771 47.4957 42.3859 47.3887 42.3714 47.2837V46.0303H42.8115Z" fill="#263238"/>
<path d="M46.1217 47.2448C46.1298 47.4088 46.1041 47.5726 46.0463 47.726C45.9884 47.8793 45.8996 48.0188 45.7856 48.1355C45.6716 48.2522 45.5349 48.3435 45.3841 48.4038C45.2333 48.464 45.0718 48.4917 44.9099 48.4852C44.7449 48.4925 44.5806 48.4586 44.4316 48.3865C44.2825 48.3144 44.1533 48.2063 44.0552 48.0718V48.4594H43.647V45.0547H44.0871V46.3985C44.1857 46.2706 44.3129 46.1682 44.4581 46.0997C44.6033 46.0312 44.7625 45.9986 44.9226 46.0044C45.0835 45.9997 45.2436 46.0288 45.3929 46.0899C45.5422 46.1509 45.6773 46.2425 45.7899 46.359C45.9026 46.4755 45.9902 46.6143 46.0473 46.7668C46.1044 46.9192 46.1297 47.082 46.1217 47.2448ZM45.6816 47.2448C45.6742 47.0844 45.6204 46.9297 45.5269 46.8C45.4335 46.6703 45.3045 46.5712 45.156 46.515C45.0075 46.4588 44.8459 46.448 44.6914 46.4839C44.5369 46.5198 44.3961 46.6008 44.2867 46.7169C44.1772 46.8331 44.1037 46.9792 44.0755 47.1372C44.0472 47.2952 44.0653 47.4582 44.1276 47.6059C44.1898 47.7535 44.2935 47.8795 44.4258 47.968C44.5581 48.0566 44.7131 48.1039 44.8716 48.1041C44.9821 48.1071 45.0919 48.0866 45.1941 48.0439C45.2963 48.0013 45.3885 47.9374 45.4649 47.8565C45.5412 47.7755 45.5999 47.6793 45.6372 47.5739C45.6746 47.4686 45.6897 47.3564 45.6816 47.2448Z" fill="#263238"/>
<path d="M45.8921 49.2281L46.0324 48.8922C46.1339 48.9676 46.2574 49.0063 46.3832 49.002C46.6192 49.002 46.7404 48.8599 46.7404 48.5756V46.0301H47.1805V48.5691C47.1931 48.6755 47.1822 48.7833 47.1487 48.8849C47.1152 48.9865 47.0598 49.0792 46.9866 49.1565C46.9133 49.2337 46.8241 49.2936 46.7253 49.3317C46.6264 49.3698 46.5205 49.3851 46.4151 49.3767C46.2293 49.3876 46.0452 49.3353 45.8921 49.2281ZM46.6639 45.2807C46.6638 45.2419 46.6715 45.2036 46.6863 45.1679C46.7011 45.1322 46.7228 45.0998 46.7502 45.0728C46.7775 45.0457 46.8099 45.0244 46.8455 45.0102C46.881 44.9959 46.919 44.9891 46.9573 44.9899C46.9952 44.9873 47.0332 44.9925 47.0691 45.0052C47.1049 45.0179 47.1379 45.0378 47.1659 45.0638C47.1939 45.0898 47.2164 45.1212 47.2321 45.1563C47.2478 45.1913 47.2563 45.2293 47.257 45.2677C47.2579 45.3076 47.2508 45.3472 47.2359 45.3841C47.2211 45.421 47.199 45.4544 47.1708 45.4823C47.1427 45.5101 47.1093 45.5318 47.0725 45.5461C47.0358 45.5603 46.9966 45.5667 46.9573 45.5649C46.9196 45.5658 46.8821 45.5591 46.8469 45.5453C46.8118 45.5315 46.7797 45.5108 46.7524 45.4844C46.7252 45.458 46.7033 45.4264 46.6881 45.3914C46.6729 45.3565 46.6647 45.3188 46.6639 45.2807Z" fill="#263238"/>
<path d="M50.1653 47.3935H48.2135C48.2421 47.6025 48.3486 47.7925 48.511 47.9247C48.6735 48.0568 48.8797 48.121 49.0873 48.1042C49.2167 48.1094 49.3456 48.0855 49.4648 48.0341C49.5839 47.9827 49.6903 47.9051 49.7762 47.807L50.0186 48.0912C49.8415 48.2742 49.6159 48.4012 49.369 48.4568C49.1221 48.5125 48.8646 48.4944 48.6277 48.4049C48.3907 48.3153 48.1845 48.158 48.034 47.9521C47.8835 47.7463 47.7952 47.5006 47.7798 47.2449C47.7737 47.082 47.8005 46.9195 47.8587 46.7675C47.9168 46.6155 48.0051 46.4771 48.118 46.3609C48.2309 46.2447 48.3661 46.1531 48.5152 46.0918C48.6644 46.0305 48.8244 46.0008 48.9853 46.0044C49.1468 45.9995 49.3075 46.0289 49.4571 46.0909C49.6066 46.1528 49.7417 46.2459 49.8535 46.364C49.9653 46.4821 50.0514 46.6227 50.1062 46.7767C50.161 46.9307 50.1833 47.0946 50.1716 47.2578C50.1716 47.2966 50.1653 47.3483 50.1653 47.3935ZM48.2135 47.0769H49.757C49.7329 46.8869 49.6412 46.7123 49.4992 46.5857C49.3571 46.4592 49.1744 46.3894 48.9853 46.3894C48.7961 46.3894 48.6134 46.4592 48.4714 46.5857C48.3294 46.7123 48.2377 46.8869 48.2135 47.0769Z" fill="#263238"/>
<path d="M50.5481 47.2449C50.5442 47.0765 50.5749 46.9091 50.6383 46.7534C50.7018 46.5977 50.7965 46.457 50.9164 46.3404C51.0364 46.2237 51.179 46.1336 51.3352 46.0758C51.4914 46.0179 51.6578 45.9937 51.8237 46.0045C52.018 45.9937 52.2114 46.0368 52.3833 46.129C52.5552 46.2212 52.6991 46.359 52.7996 46.5278L52.4679 46.741C52.3996 46.6327 52.3052 46.5439 52.1936 46.4828C52.082 46.4218 51.9569 46.3905 51.8301 46.3921C51.6186 46.4107 51.4217 46.509 51.2783 46.6675C51.1348 46.8259 51.0553 47.0331 51.0553 47.2481C51.0553 47.4631 51.1348 47.6703 51.2783 47.8288C51.4217 47.9873 51.6186 48.0855 51.8301 48.1042C51.9569 48.1057 52.082 48.0745 52.1936 48.0134C52.3052 47.9524 52.3996 47.8636 52.4679 47.7553L52.7996 47.962C52.6991 48.1308 52.5552 48.2686 52.3833 48.3608C52.2114 48.453 52.018 48.4961 51.8237 48.4854C51.6578 48.4962 51.4914 48.4719 51.3352 48.414C51.179 48.3562 51.0364 48.2661 50.9164 48.1494C50.7965 48.0328 50.7018 47.8921 50.6383 47.7364C50.5749 47.5807 50.5442 47.4133 50.5481 47.2449Z" fill="#263238"/>
<path d="M54.7326 48.3173C54.5826 48.4328 54.3978 48.4921 54.2096 48.4853C54.1075 48.4976 54.0041 48.4864 53.9069 48.4526C53.8097 48.4187 53.7213 48.363 53.6484 48.2898C53.5754 48.2165 53.5197 48.1274 53.4855 48.0293C53.4512 47.9311 53.4393 47.8264 53.4506 47.723V46.3921H53.0424V46.0303H53.4506V45.5005H53.8843V46.0303H54.5731V46.3921H53.8843V47.6842C53.8764 47.7373 53.8805 47.7914 53.8962 47.8427C53.9119 47.8939 53.9389 47.9409 53.9751 47.98C54.0113 48.0192 54.0558 48.0495 54.1053 48.0688C54.1547 48.0881 54.2078 48.0957 54.2606 48.0912C54.3827 48.0903 54.5013 48.0495 54.5987 47.9749L54.7326 48.3173Z" fill="#263238"/>
<path d="M56.2694 46.321C56.2685 46.2797 56.2758 46.2387 56.2908 46.2003C56.3058 46.1619 56.3283 46.127 56.3568 46.0975C56.3853 46.068 56.4193 46.0446 56.4569 46.0286C56.4945 46.0126 56.5348 46.0044 56.5756 46.0044C56.616 46.0044 56.6561 46.0126 56.6933 46.0287C56.7305 46.0447 56.7642 46.0683 56.7922 46.0979C56.8202 46.1274 56.842 46.1625 56.8563 46.2008C56.8706 46.2391 56.8771 46.28 56.8753 46.321C56.8771 46.3619 56.8706 46.4028 56.8563 46.4411C56.842 46.4795 56.8202 46.5145 56.7922 46.5441C56.7642 46.5737 56.7305 46.5972 56.6933 46.6133C56.6561 46.6293 56.616 46.6376 56.5756 46.6375C56.5348 46.6376 56.4945 46.6293 56.4569 46.6133C56.4193 46.5973 56.3853 46.5739 56.3568 46.5444C56.3283 46.515 56.3058 46.48 56.2908 46.4416C56.2758 46.4033 56.2685 46.3622 56.2694 46.321ZM56.2694 48.1687C56.2685 48.1278 56.2759 48.0871 56.2909 48.049C56.306 48.011 56.3285 47.9765 56.3571 47.9475C56.3857 47.9185 56.4198 47.8957 56.4574 47.8804C56.4949 47.8652 56.5351 47.8577 56.5756 47.8586C56.6601 47.8586 56.7413 47.8927 56.8011 47.9532C56.8609 48.0138 56.8945 48.096 56.8945 48.1817C56.8945 48.2673 56.8609 48.3495 56.8011 48.4101C56.7413 48.4707 56.6601 48.5047 56.5756 48.5047C56.5337 48.5048 56.4922 48.4962 56.4538 48.4794C56.4154 48.4626 56.3807 48.438 56.352 48.4071C56.3233 48.3762 56.3012 48.3397 56.287 48.2998C56.2728 48.2599 56.2668 48.2175 56.2694 48.1752V48.1687Z" fill="#263238"/>
<path d="M95.9806 26.1572C95.9806 26.2476 85.8264 26.3251 73.2994 26.3251C60.7724 26.3251 50.6182 26.2476 50.6182 26.1572C50.6182 26.0668 60.7724 25.9893 73.2994 25.9893C85.8264 25.9893 95.9806 26.0603 95.9806 26.1572Z" fill="#263238"/>
<path d="M116.238 36.6362C116.238 36.7331 101.568 36.8042 83.4281 36.8042C65.2882 36.8042 50.6182 36.7331 50.6182 36.6362C50.6182 36.5393 65.2882 36.4683 83.4281 36.4683C101.568 36.4683 116.238 36.5458 116.238 36.6362Z" fill="#263238"/>
<path d="M91.9753 47.0444C91.8755 47.054 91.7752 47.054 91.6755 47.0444H90.808L87.6189 47.0961C84.9336 47.0961 81.2406 47.1478 77.1457 47.1478C73.0508 47.1478 69.3514 47.1478 66.6725 47.0961L63.4834 47.0444H62.6223C62.5205 47.0536 62.418 47.0536 62.3162 47.0444C62.4156 47.0156 62.5189 47.0025 62.6223 47.0056H63.4834L66.6725 46.9539C69.3514 46.9539 73.0508 46.9087 77.1457 46.9087C81.2406 46.9087 84.9336 46.9087 87.6189 46.9539L90.808 47.0056H91.6755C91.7768 47.002 91.878 47.0151 91.9753 47.0444Z" fill="#263238"/>
<path d="M190.443 52.6973C190.443 52.7878 155.248 52.8653 111.843 52.8653C68.4392 52.8653 33.231 52.7942 33.231 52.6973C33.231 52.6004 68.42 52.5293 111.843 52.5293C155.267 52.5293 190.443 52.6068 190.443 52.6973Z" fill="#E0E0E0"/>
<path d="M190.444 41.3526C190.444 41.4495 155.235 41.5206 111.812 41.5206C68.3885 41.5206 33.174 41.4495 33.174 41.3526C33.174 41.2556 68.3758 41.1846 111.812 41.1846C155.248 41.1846 190.444 41.2621 190.444 41.3526Z" fill="#E0E0E0"/>
<path d="M190.443 31.3774C190.443 31.4679 155.248 31.5454 111.843 31.5454C68.4392 31.5454 33.231 31.4873 33.231 31.3774C33.231 31.2676 68.42 31.2095 111.843 31.2095C155.267 31.2095 190.443 31.3064 190.443 31.3774Z" fill="#E0E0E0"/>
<path d="M54.3372 66.5426C52.5414 66.709 50.7373 66.7651 48.9348 66.7106C47.1302 66.7649 45.3239 66.7088 43.526 66.5426C45.3239 66.3764 47.1302 66.3203 48.9348 66.3746C50.7373 66.3201 52.5414 66.3762 54.3372 66.5426Z" fill="#263238"/>
<path d="M115.894 72.8807C115.894 72.9712 99.5271 73.0487 79.3526 73.0487C59.178 73.0487 42.8049 72.9712 42.8049 72.8807C42.8049 72.7902 59.1653 72.7256 79.3653 72.7256C99.5654 72.7256 115.894 72.7902 115.894 72.8807Z" fill="#263238"/>
<path d="M103.769 77.3129C103.769 77.3906 90.1191 77.4553 73.2868 77.4553C56.4545 77.4553 42.8049 77.3906 42.8049 77.3129C42.8049 77.2352 56.4481 77.1704 73.2868 77.1704C90.1255 77.1704 103.769 77.2481 103.769 77.3129Z" fill="#263238"/>
<path d="M37.6832 15.1547C38.2292 15.1547 38.6718 14.7063 38.6718 14.1533C38.6718 13.6002 38.2292 13.1519 37.6832 13.1519C37.1372 13.1519 36.6946 13.6002 36.6946 14.1533C36.6946 14.7063 37.1372 15.1547 37.6832 15.1547Z" fill="white"/>
<path d="M41.1979 15.1547C41.7439 15.1547 42.1865 14.7063 42.1865 14.1533C42.1865 13.6002 41.7439 13.1519 41.1979 13.1519C40.6519 13.1519 40.2092 13.6002 40.2092 14.1533C40.2092 14.7063 40.6519 15.1547 41.1979 15.1547Z" fill="white"/>
<path d="M44.712 15.1547C45.258 15.1547 45.7007 14.7063 45.7007 14.1533C45.7007 13.6002 45.258 13.1519 44.712 13.1519C44.166 13.1519 43.7234 13.6002 43.7234 14.1533C43.7234 14.7063 44.166 15.1547 44.712 15.1547Z" fill="white"/>
<path d="M192.797 126.543C192.797 125.419 192.74 80.4914 192.663 9.5337L192.797 9.66938L33.2439 9.70168L33.4098 9.5337C33.4098 51.4829 33.4098 91.2678 33.4098 126.543L33.2567 126.395L192.823 126.543L33.2567 126.698H33.11V126.543C33.11 91.2678 33.11 51.4829 33.11 9.5337V9.36572H33.2886H192.842H192.976V9.5014C192.848 80.4785 192.797 125.419 192.797 126.543Z" fill="#263238"/>
<path d="M241.662 244.018H237.975V246.027H241.662V244.018Z" fill="#E0E0E0"/>
<path d="M240.399 193.379H231.884V236.155H240.399V193.379Z" fill="#EBEBEB"/>
<path d="M255.464 195.634H215.498C213.456 195.634 211.498 194.812 210.054 193.35C208.61 191.887 207.799 189.904 207.799 187.836C207.798 186.811 207.997 185.796 208.384 184.85C208.77 183.903 209.337 183.042 210.052 182.318C210.767 181.593 211.616 181.018 212.55 180.625C213.485 180.233 214.486 180.031 215.498 180.031H255.464C256.476 180.031 257.477 180.233 258.412 180.625C259.346 181.018 260.195 181.593 260.91 182.318C261.625 183.042 262.192 183.903 262.579 184.85C262.965 185.796 263.164 186.811 263.163 187.836C263.163 188.86 262.964 189.874 262.577 190.82C262.19 191.766 261.623 192.626 260.908 193.35C260.193 194.074 259.344 194.648 258.41 195.04C257.476 195.432 256.475 195.634 255.464 195.634Z" fill="#455A64"/>
<path d="M238.868 236.155H233.472V266.521H238.868V236.155Z" fill="#E0E0E0"/>
<path d="M214.529 281.322C213.47 281.458 260 281.322 260 281.322C260 281.322 240.15 279.074 238.868 266.521H233.472C233.472 266.521 232.114 279.054 214.529 281.322Z" fill="#E0E0E0"/>
<path d="M257.046 195.634C257.046 195.724 247.804 195.802 236.406 195.802C225.008 195.802 215.766 195.724 215.766 195.634C215.766 195.543 225.008 195.466 236.406 195.466C247.804 195.466 257.046 195.543 257.046 195.634Z" fill="#263238"/>
<path d="M240.393 236.181C237.535 236.405 234.665 236.405 231.807 236.181C234.667 235.957 237.539 235.957 240.399 236.181H240.393Z" fill="#263238"/>
<path d="M241.662 248.275C241.374 248.275 241.097 248.16 240.893 247.954C240.689 247.748 240.573 247.469 240.571 247.177V242.867C240.573 242.575 240.688 242.295 240.893 242.088C241.097 241.881 241.373 241.764 241.662 241.763C241.951 241.764 242.227 241.881 242.431 242.088C242.636 242.295 242.751 242.575 242.753 242.867V247.164C242.754 247.309 242.726 247.454 242.671 247.589C242.617 247.723 242.537 247.846 242.435 247.949C242.334 248.053 242.214 248.134 242.081 248.19C241.948 248.246 241.806 248.275 241.662 248.275Z" fill="#E0E0E0"/>
<path d="M156.62 71.2396C156.62 71.2396 158.489 69.1657 159.057 69.1205C159.624 69.0753 165.435 70.839 165.435 70.839C166.109 70.9683 166.737 71.2734 167.259 71.7241C167.782 72.3702 173.529 78.6693 173.529 78.6693L167.151 84.3676C167.151 84.3676 159.663 83.0044 159.012 82.2098C158.361 81.4151 157.838 80.1423 158.317 79.7418C157.994 79.1831 157.844 78.5399 157.883 77.894C157.988 77.4391 158.118 76.9904 158.272 76.5502C158.272 76.5502 157.143 75.7297 157.098 75.1612C157.085 74.8545 157.011 74.5537 156.882 74.2761L156.62 73.8368V71.2396Z" fill="#FFBE9D"/>
<path d="M159.229 72.4734C159.261 72.4734 159.229 72.6737 159.127 72.9644C158.98 73.3526 158.736 73.6955 158.419 73.9594C158.251 74.0903 158.058 74.183 157.852 74.2309C157.646 74.2789 157.433 74.281 157.226 74.2372C156.907 74.1532 156.779 73.9788 156.805 73.9594C156.83 73.94 156.984 74.024 157.258 74.0498C157.617 74.0667 157.971 73.9571 158.259 73.7397C158.541 73.499 158.777 73.2077 158.954 72.8804C159.095 72.622 159.19 72.4605 159.229 72.4734Z" fill="#EB996E"/>
<path d="M133.645 57.6788C132.723 57.6736 131.837 58.0383 131.179 58.6933C130.522 59.3482 130.147 60.2401 130.137 61.174L129.837 100.138C129.832 101.072 130.192 101.97 130.839 102.636C131.486 103.302 132.366 103.682 133.288 103.692L161.078 103.911C162 103.917 162.887 103.552 163.544 102.897C164.202 102.242 164.576 101.35 164.586 100.416L164.771 61.4324C164.775 60.9579 164.686 60.4874 164.509 60.0479C164.332 59.6083 164.072 59.2084 163.742 58.8711C163.413 58.5338 163.021 58.2657 162.589 58.0821C162.157 57.8986 161.693 57.8032 161.225 57.8015L133.645 57.6788Z" fill="#E0E0E0"/>
<path d="M148.889 69.4952C148.889 69.6374 146.013 69.7278 142.46 69.702C138.907 69.6761 136.031 69.534 136.031 69.3919C136.031 69.2497 138.914 69.1593 142.466 69.1916C146.019 69.2239 148.889 69.3725 148.889 69.4952Z" fill="#E0E0E0"/>
<path d="M157.118 74.5862C157.118 74.7284 152.372 74.8059 146.53 74.7542C140.687 74.7025 135.954 74.5604 135.954 74.4183C135.954 74.2761 140.693 74.1986 146.536 74.2438C152.378 74.2891 157.118 74.4441 157.118 74.5862Z" fill="#E0E0E0"/>
<path d="M158.98 79.7808C158.98 79.9229 153.814 79.994 147.442 79.9423C141.07 79.8906 135.91 79.7355 135.91 79.5934C135.91 79.4513 141.076 79.3802 147.448 79.4319C153.82 79.4836 158.98 79.6386 158.98 79.7808Z" fill="#E0E0E0"/>
<path d="M158.942 84.665C158.942 84.8072 153.775 84.8782 147.41 84.8265C141.044 84.7749 135.872 84.6198 135.872 84.4777C135.872 84.3355 141.038 84.2645 147.41 84.3162C153.782 84.3678 158.942 84.5229 158.942 84.665Z" fill="#E0E0E0"/>
<path d="M158.904 89.5235C158.904 89.6656 153.737 89.7367 147.372 89.685C141.006 89.6333 135.833 89.4782 135.833 89.3361C135.833 89.1939 141 89.1229 147.372 89.1746C153.743 89.2262 158.904 89.4072 158.904 89.5235Z" fill="#E0E0E0"/>
<path d="M158.865 94.4336C158.865 94.5757 153.699 94.6468 147.333 94.5951C140.967 94.5434 135.795 94.3884 135.801 94.2527C135.807 94.117 140.961 94.0331 147.333 94.0847C153.705 94.1364 158.865 94.2915 158.865 94.4336Z" fill="#E0E0E0"/>
<path d="M132.357 56.5157C131.9 56.5123 131.448 56.6 131.025 56.7738C130.602 56.9476 130.217 57.2041 129.891 57.5287C129.566 57.8533 129.307 58.2395 129.13 58.6654C128.952 59.0913 128.859 59.5486 128.855 60.0109L128.549 98.9753C128.544 99.9092 128.904 100.807 129.551 101.473C130.197 102.139 131.078 102.518 132 102.529L159.796 102.748C160.253 102.752 160.706 102.664 161.129 102.49C161.552 102.316 161.937 102.06 162.262 101.735C162.587 101.411 162.846 101.024 163.024 100.599C163.202 100.173 163.295 99.7155 163.298 99.2531L163.489 60.2629C163.493 59.3062 163.121 58.3872 162.456 57.7077C161.792 57.0281 160.888 56.6436 159.943 56.6385L132.357 56.5157Z" fill="white"/>
<path d="M132.357 56.5159C132.357 56.5159 132.497 56.5159 132.759 56.5159H133.926H138.423H154.962H159.025C159.501 56.4991 159.979 56.5142 160.453 56.5611C160.954 56.6311 161.434 56.8057 161.865 57.0737C162.295 57.3418 162.666 57.6974 162.954 58.1181C163.258 58.5473 163.465 59.0393 163.56 59.5589C163.628 60.077 163.65 60.6003 163.623 61.1224C163.623 65.283 163.591 69.728 163.572 74.3991C163.553 79.0702 163.534 83.9803 163.509 89.0713C163.509 91.6104 163.509 94.2011 163.477 96.8241C163.477 97.4702 163.477 98.1163 163.477 98.8076C163.525 99.497 163.402 100.188 163.119 100.817C162.82 101.454 162.347 101.991 161.756 102.364C161.164 102.737 160.48 102.931 159.784 102.923L144.227 102.794L136.834 102.729H133.25C132.654 102.739 132.058 102.718 131.464 102.665C130.862 102.571 130.294 102.319 129.818 101.935C129.349 101.564 128.976 101.083 128.732 100.534C128.487 99.9846 128.379 99.3832 128.415 98.7817C128.415 97.6382 128.415 96.514 128.447 95.4093C128.447 93.1932 128.485 91.0418 128.504 88.9486C128.543 84.7879 128.581 80.9179 128.613 77.3775C128.689 70.3159 128.753 64.5982 128.798 60.6314C128.781 60.1614 128.817 59.691 128.906 59.2294C129.002 58.8238 129.168 58.4388 129.397 58.0923C129.756 57.5488 130.254 57.1153 130.839 56.8389C131.198 56.6732 131.582 56.5706 131.974 56.5353C132.106 56.5253 132.238 56.5253 132.37 56.5353C131.85 56.557 131.341 56.6844 130.871 56.91C130.304 57.1874 129.823 57.6163 129.48 58.1505C129.261 58.4893 129.106 58.8659 129.021 59.2617C128.939 59.7154 128.907 60.1769 128.925 60.6378C128.925 64.6047 128.881 70.3289 128.849 77.3904C128.849 80.9244 128.804 84.8008 128.779 88.955C128.779 91.0354 128.779 93.1868 128.74 95.4157C128.74 96.5269 128.74 97.6511 128.74 98.7882C128.704 99.3422 128.801 99.897 129.023 100.405C129.245 100.912 129.586 101.357 130.016 101.702C130.457 102.045 130.978 102.267 131.528 102.348C132.105 102.397 132.684 102.417 133.263 102.406H136.847L144.246 102.458L159.796 102.581C160.433 102.588 161.058 102.409 161.597 102.065C162.135 101.722 162.565 101.227 162.832 100.642C163.094 100.057 163.208 99.4159 163.164 98.7753C163.164 98.1292 163.164 97.4831 163.164 96.7983C163.164 94.1753 163.177 91.591 163.202 89.0455C163.202 83.9609 163.26 79.0508 163.285 74.3797C163.311 69.7086 163.343 65.2637 163.368 61.103C163.391 60.5962 163.372 60.0883 163.311 59.5847C163.221 59.1062 163.032 58.6525 162.756 58.2538C162.489 57.8621 162.144 57.5303 161.745 57.2791C161.346 57.0279 160.899 56.8626 160.434 56.7937C159.988 56.7356 159.509 56.7614 159.044 56.7485H157.66H154.981L138.442 56.6193L133.945 56.5676H132.778L132.357 56.5159Z" fill="#263238"/>
<path d="M147.576 68.3517C147.576 68.4939 144.693 68.5843 141.14 68.5585C137.587 68.5326 134.717 68.3905 134.717 68.2483C134.717 68.1062 137.594 68.0157 141.146 68.0481C144.699 68.0804 147.576 68.2031 147.576 68.3517Z" fill="#263238"/>
<path d="M155.829 73.4232C155.829 73.5653 151.09 73.6429 145.247 73.5912C139.405 73.5395 134.666 73.3973 134.666 73.2552C134.666 73.1131 139.405 73.0355 145.254 73.0808C151.103 73.126 155.829 73.281 155.829 73.4232Z" fill="#263238"/>
<path d="M157.698 78.6177C157.698 78.7598 152.532 78.8309 146.16 78.7792C139.788 78.7275 134.628 78.5724 134.628 78.4303C134.628 78.2882 139.794 78.2171 146.166 78.2688C152.538 78.3205 157.698 78.4755 157.698 78.6177Z" fill="#263238"/>
<path d="M157.66 83.5019C157.66 83.6441 152.493 83.7151 146.122 83.6635C139.75 83.6118 134.59 83.4567 134.59 83.3146C134.59 83.1725 139.756 83.1014 146.128 83.1531C152.5 83.2048 157.66 83.3598 157.66 83.5019Z" fill="#263238"/>
<path d="M157.621 88.3862C157.621 88.5283 152.455 88.5994 146.083 88.5477C139.711 88.496 134.551 88.341 134.551 88.1988C134.551 88.0567 139.717 87.9857 146.089 88.0373C152.461 88.089 157.621 88.2311 157.621 88.3862Z" fill="#263238"/>
<path d="M157.583 93.2705C157.583 93.4126 152.417 93.4837 146.045 93.432C139.673 93.3803 134.513 93.2253 134.513 93.0896C134.513 92.954 139.679 92.87 146.051 92.9217C152.423 92.9733 157.583 93.1284 157.583 93.2705Z" fill="#263238"/>
<path d="M135.852 63.7842C135.377 63.7842 134.921 63.5929 134.585 63.2524C134.249 62.912 134.06 62.4502 134.06 61.9687V57.4462C134.06 57.1224 134.187 56.8118 134.413 56.5828C134.639 56.3538 134.945 56.2252 135.265 56.2252C135.585 56.2252 135.892 56.3538 136.118 56.5828C136.344 56.8118 136.471 57.1224 136.471 57.4462V60.6766C136.476 60.7117 136.474 60.7477 136.465 60.782C136.456 60.8163 136.439 60.8481 136.416 60.8752C136.393 60.9023 136.365 60.9241 136.333 60.9391C136.301 60.954 136.267 60.9618 136.232 60.9618C136.196 60.9618 136.162 60.954 136.13 60.9391C136.098 60.9241 136.07 60.9023 136.047 60.8752C136.024 60.8481 136.007 60.8163 135.998 60.782C135.989 60.7477 135.987 60.7117 135.992 60.6766V57.4462C135.992 57.2509 135.916 57.0635 135.779 56.9254C135.643 56.7873 135.458 56.7097 135.265 56.7097C135.072 56.7097 134.887 56.7873 134.751 56.9254C134.615 57.0635 134.538 57.2509 134.538 57.4462V61.9687C134.538 62.3217 134.677 62.6602 134.923 62.9098C135.169 63.1594 135.504 63.2996 135.852 63.2996C136.2 63.2996 136.535 63.1594 136.781 62.9098C137.028 62.6602 137.166 62.3217 137.166 61.9687V56.7549C137.178 56.2931 137.026 55.8423 136.739 55.4836C136.451 55.1249 136.047 54.882 135.599 54.7986C135.15 54.7152 134.687 54.7969 134.292 55.0288C133.898 55.2607 133.598 55.6277 133.447 56.0636V56.2768C133.438 56.3343 133.409 56.3866 133.365 56.4243C133.321 56.462 133.266 56.4827 133.208 56.4827C133.151 56.4827 133.095 56.462 133.051 56.4243C133.007 56.3866 132.978 56.3343 132.969 56.2768V56.0184C132.963 55.9929 132.963 55.9663 132.969 55.9409C133.156 55.3979 133.527 54.9398 134.016 54.648C134.506 54.3562 135.081 54.2496 135.641 54.3473C136.2 54.445 136.707 54.7406 137.072 55.1814C137.436 55.6223 137.635 56.1799 137.632 56.7549V61.9687C137.632 62.448 137.444 62.9078 137.111 63.2479C136.778 63.588 136.325 63.7808 135.852 63.7842Z" fill="#263238"/>
<path d="M169.797 75.7104L166.749 73.7722L158.942 69.5986C158.942 69.5986 157.392 71.1233 160.013 73.32L163.241 75.9042C163.241 75.9042 166.111 81.2343 166.723 81.6219C167.842 82.1573 168.987 82.6339 170.155 83.0497L169.797 75.7104Z" fill="#FFBE9D"/>
<path d="M170.454 83.1985C170.347 83.1913 170.242 83.1673 170.142 83.1275C169.938 83.0693 169.638 82.9853 169.255 82.8497C168.873 82.714 168.413 82.5525 167.89 82.3134C167.61 82.1902 167.338 82.05 167.074 81.8935C166.766 81.7177 166.497 81.4803 166.283 81.1957C165.305 79.8088 164.425 78.3537 163.649 76.8413L163.292 76.1952C163.174 75.9916 163.018 75.8137 162.832 75.6719C162.469 75.3488 162.061 75.0258 161.659 74.7157C160.793 74.0808 159.964 73.3948 159.178 72.6612C158.748 72.2568 158.469 71.7148 158.388 71.1264C158.306 70.5381 158.428 69.9393 158.731 69.4309L158.795 69.334L158.903 69.3986C162.022 71.1817 164.714 72.8098 166.749 73.766C167.737 74.3151 168.49 74.8062 169.007 75.1356L169.6 75.5297C169.67 75.5754 169.736 75.6273 169.798 75.6848C169.719 75.6578 169.644 75.6209 169.574 75.575L168.936 75.2196C168.401 74.9095 167.629 74.4379 166.64 73.9275C164.586 73.0166 161.869 71.4079 158.75 69.6376L158.916 69.5989C158.65 70.037 158.55 70.5583 158.635 71.0654C158.72 71.5983 158.968 72.0908 159.343 72.4739C160.125 73.192 160.943 73.8691 161.793 74.5025C162.201 74.8255 162.603 75.1486 162.979 75.4716C163.075 75.5571 163.167 75.6476 163.253 75.7429C163.343 75.8392 163.423 75.9454 163.489 76.0595C163.604 76.2792 163.725 76.4859 163.84 76.7056C164.595 78.2122 165.448 79.6669 166.391 81.0601C166.8 81.5498 167.321 81.9293 167.91 82.1648C168.42 82.4103 168.873 82.5912 169.249 82.7398L170.11 83.0629C170.228 83.1007 170.343 83.1461 170.454 83.1985Z" fill="#EB996E"/>
<path d="M254.667 60.6698C254.559 58.7316 254.323 49.4152 254.208 47.9939C254.091 46.0523 253.266 44.224 251.893 42.8641C250.502 41.572 248.34 40.9905 246.637 41.8368C246.083 41.9796 245.576 42.268 245.167 42.673C244.758 43.078 244.462 43.5852 244.309 44.1433C240.431 58.1113 241.043 72.9838 239.328 87.4299C244.392 88.2634 251.204 87.921 256.326 87.6496C256.326 76.1173 255.363 73.126 254.667 60.6698Z" fill="#263238"/>
<path d="M252.53 80.3687C252.502 80.246 252.489 80.12 252.492 79.9939C252.492 79.7097 252.46 79.3479 252.441 78.9215C252.409 77.9459 252.371 76.6085 252.32 74.9804C252.25 71.6144 252.154 67.0338 252.052 61.9751C252.014 59.4425 251.976 57.0262 251.944 54.8167C251.944 53.7183 251.944 52.6717 251.905 51.6962C251.923 50.7943 251.861 49.8927 251.72 49.0021C251.642 48.3609 251.424 47.7453 251.084 47.1992C250.743 46.6531 250.287 46.1899 249.75 45.8428C249.336 45.6179 248.883 45.4774 248.417 45.4293H248.506C248.599 45.4201 248.693 45.4201 248.786 45.4293C249.145 45.4597 249.495 45.563 249.813 45.733C250.317 46.0104 250.753 46.399 251.089 46.87C251.527 47.4947 251.823 48.2094 251.956 48.9633C252.11 49.8658 252.185 50.7803 252.18 51.6962C252.18 52.6782 252.224 53.7183 252.25 54.8167C252.294 57.0262 252.339 59.4425 252.384 61.9816C252.454 67.0338 252.511 71.6144 252.556 74.9804C252.556 76.615 252.556 77.9459 252.556 78.9279C252.556 79.3608 252.556 79.7161 252.556 80.0004C252.562 80.1237 252.553 80.2474 252.53 80.3687Z" fill="#455A64"/>
<path d="M247.925 75.0708C247.879 74.7935 247.859 74.5121 247.868 74.2309C247.868 73.6882 247.836 72.9 247.836 71.9309C247.836 69.9927 247.874 67.318 247.945 64.3655C248.015 61.413 248.098 58.8028 248.155 56.7936C248.155 55.8826 248.206 55.1138 248.232 54.5065C248.227 54.223 248.248 53.9396 248.295 53.6602C248.347 53.9391 248.369 54.2229 248.359 54.5065C248.359 55.0492 248.359 55.7986 248.391 56.8C248.391 58.7382 248.353 61.413 248.276 64.3719C248.2 67.3309 248.123 69.9281 248.072 71.9374C248.04 72.8483 248.015 73.6171 247.996 74.2309C248.001 74.5126 247.977 74.7941 247.925 75.0708Z" fill="#455A64"/>
<path d="M231.01 31.093C234.837 30.6924 238.026 32.3851 241.05 34.7304C244.078 37.1456 246.303 40.4417 247.428 44.1759C248.633 48.0523 248.652 53.5761 247.281 57.4073C246.668 59.2215 245.628 60.8577 244.253 62.1754C242.878 63.4932 241.207 64.4531 239.385 64.9728C234.097 66.4846 228.14 65.8708 223.981 62.2334C219.823 58.5961 217.686 52.8913 217.833 47.3287C217.88 43.4623 219.13 39.7095 221.404 36.604C222.548 35.0709 223.991 33.7928 225.644 32.8491C227.296 31.9054 229.123 31.3165 231.01 31.1188" fill="#263238"/>
<path d="M240.865 44.7442C240.405 43.2518 240.724 41.6366 240.609 40.0796C240.348 36.649 237.822 33.7481 234.78 32.2105C231.948 30.7891 228.401 30.8214 224.804 31.7389C222.322 32.3228 220.057 33.6115 218.273 35.4537C217.133 36.7099 216.307 38.2239 215.863 39.8693C215.42 41.5147 215.371 43.2438 215.721 44.9122L233.051 43.5167C234.569 44.9703 236.132 46.4498 238.033 47.3285C238.579 47.6176 239.189 47.76 239.806 47.7419C240.112 47.7242 240.407 47.6181 240.656 47.436C240.904 47.254 241.096 47.0037 241.209 46.7147C241.375 46.0622 241.062 45.3903 240.865 44.7442Z" fill="#263238"/>
<path d="M224.154 36.546L238.932 40.7584C239.628 40.8515 240.264 41.206 240.714 41.7516C241.164 42.2973 241.395 42.9942 241.362 43.7044L239.06 76.5441C238.905 78.7896 238.021 80.9203 236.547 82.6042L234.997 84.355C231.463 88.3929 224.887 87.5272 222.706 82.6042C222.573 82.3227 222.477 82.0252 222.419 81.7191C222.374 81.4711 222.342 81.2209 222.323 80.9696C222.171 79.3073 222.193 77.6334 222.387 75.9755C222.431 73.0424 222.463 71.8407 222.457 71.8665C222.451 71.8924 216.378 70.6778 215.32 62.5632C214.797 58.5317 215.173 51.9547 215.645 46.5794C216.047 41.7145 219.376 35.8999 224.154 36.546Z" fill="#FFBE9D"/>
<path d="M217.501 52.8847C217.491 53.1547 217.585 53.418 217.764 53.6185C217.942 53.8189 218.192 53.9405 218.458 53.9572C218.587 53.9705 218.718 53.9576 218.843 53.9192C218.968 53.8808 219.083 53.8177 219.184 53.7335C219.284 53.6494 219.367 53.5458 219.427 53.4289C219.488 53.312 219.525 53.1841 219.536 53.0527C219.546 52.7827 219.452 52.5193 219.273 52.3189C219.094 52.1184 218.845 51.9969 218.579 51.9802C218.449 51.9669 218.318 51.9798 218.194 52.0182C218.069 52.0566 217.953 52.1197 217.853 52.2039C217.753 52.288 217.67 52.3916 217.61 52.5085C217.549 52.6253 217.512 52.7532 217.501 52.8847Z" fill="#263238"/>
<path d="M216.939 50.0291C217.061 50.1712 217.852 49.6091 218.955 49.6414C220.058 49.6737 220.868 50.2875 220.971 50.1195C221.073 49.9515 220.907 49.8158 220.562 49.5445C220.094 49.2005 219.533 49.0089 218.955 48.9953C218.383 48.9783 217.82 49.1457 217.348 49.4734C217.003 49.7254 216.882 49.9709 216.939 50.0291Z" fill="#263238"/>
<path d="M227.343 53.2856C227.332 53.5555 227.426 53.8189 227.605 54.0194C227.784 54.2198 228.033 54.3414 228.299 54.3581C228.429 54.3723 228.56 54.3601 228.685 54.322C228.81 54.284 228.926 54.2209 229.027 54.1366C229.127 54.0522 229.21 53.9483 229.27 53.831C229.331 53.7137 229.367 53.5853 229.377 53.4536C229.386 53.184 229.291 52.9216 229.113 52.7215C228.934 52.5214 228.686 52.3993 228.421 52.3811C228.291 52.3677 228.16 52.3806 228.035 52.419C227.911 52.4574 227.795 52.5206 227.695 52.6047C227.594 52.6889 227.512 52.7925 227.451 52.9093C227.391 53.0262 227.354 53.1541 227.343 53.2856Z" fill="#263238"/>
<path d="M227.381 50.4493C227.502 50.5914 228.293 50.0294 229.39 50.0617C230.487 50.094 231.304 50.7077 231.406 50.5397C231.508 50.3718 231.348 50.2361 230.997 49.9647C230.529 49.62 229.969 49.4284 229.39 49.4156C228.818 49.3995 228.255 49.5668 227.783 49.8937C227.438 50.1456 227.343 50.3911 227.381 50.4493Z" fill="#263238"/>
<path d="M223.515 58.6865C222.94 58.4871 222.342 58.3612 221.736 58.3118C221.455 58.273 221.194 58.2149 221.149 58.0146C221.131 57.7213 221.205 57.4296 221.36 57.1812C221.64 56.4963 221.934 55.7792 222.246 55.0362C223.484 51.9803 224.383 49.467 224.262 49.4154C224.141 49.3637 223.037 51.7994 221.806 54.8553C221.506 55.6112 221.219 56.3283 220.951 57.0132C220.767 57.3515 220.706 57.745 220.779 58.1244C220.816 58.2263 220.875 58.3183 220.953 58.3933C221.03 58.4684 221.124 58.5245 221.226 58.5573C221.382 58.6022 221.542 58.6282 221.704 58.6348C222.303 58.7301 222.912 58.7475 223.515 58.6865Z" fill="#263238"/>
<path d="M222.431 71.8533C226.183 72.0182 229.906 71.1235 233.185 69.269C233.185 69.269 230.353 74.7865 222.393 73.7915L222.431 71.8533Z" fill="#EB996E"/>
<path d="M223.937 61.3872C224.151 61.1247 224.429 60.9227 224.742 60.8005C225.056 60.6783 225.396 60.64 225.729 60.6894C225.971 60.7169 226.205 60.7941 226.417 60.9163C226.628 61.0385 226.813 61.2031 226.96 61.4001C227.103 61.5892 227.185 61.8183 227.195 62.0564C227.206 62.2944 227.143 62.5299 227.017 62.731C226.835 62.9263 226.599 63.0621 226.34 63.1208C226.081 63.1795 225.81 63.1585 225.563 63.0605C225.048 62.8609 224.578 62.5601 224.179 62.1754C224.057 62.0808 223.954 61.9648 223.873 61.8329C223.832 61.7719 223.81 61.6999 223.81 61.6262C223.81 61.5525 223.832 61.4805 223.873 61.4195" fill="#EB996E"/>
<path d="M226.756 59.546C226.577 59.546 226.545 60.7412 225.48 61.5681C224.415 62.3951 223.171 62.2142 223.152 62.4015C223.133 62.5889 223.433 62.647 223.969 62.6729C224.662 62.6917 225.339 62.463 225.882 62.0268C226.416 61.6128 226.766 61.0022 226.858 60.3277C226.966 59.8432 226.839 59.5395 226.756 59.546Z" fill="#263238"/>
<path d="M227.655 47.1542C227.751 47.4643 228.854 47.348 230.143 47.5418C231.431 47.7357 232.464 48.1168 232.643 47.852C232.719 47.7227 232.547 47.432 232.133 47.1284C231.585 46.7473 230.955 46.5037 230.296 46.4177C229.636 46.3213 228.963 46.3832 228.331 46.5986C227.853 46.7795 227.61 47.0121 227.655 47.1542Z" fill="#263238"/>
<path d="M217.386 45.1642C217.577 45.4226 218.336 45.1642 219.248 45.1642C220.16 45.1642 220.932 45.3774 221.111 45.119C221.194 44.9898 221.079 44.7378 220.747 44.4729C220.307 44.1669 219.782 44.0087 219.248 44.0206C218.713 44.0125 218.188 44.1753 217.749 44.4858C217.418 44.783 217.303 45.0414 217.386 45.1642Z" fill="#263238"/>
<path d="M243.76 42.5801C242.485 37.8573 236.106 31.1059 231.297 31.2222L223.401 35.5444C223.591 36.8843 224.136 38.147 224.977 39.1991C225.818 40.2511 226.924 41.0532 228.178 41.5205C229.518 42.0051 231.15 42.1666 231.903 43.42C232.656 44.6734 232.114 46.4048 232.828 47.6841C233.81 49.4608 236.725 49.5124 237.439 51.4248C237.752 52.2518 237.529 53.2209 237.854 54.0479C238.294 55.1526 240.928 56.6321 242.057 56.3349C243.186 56.0378 243.282 54.106 243.69 53.1046C244.2 51.9891 244.315 50.7296 244.016 49.5383C243.633 47.2383 244.36 44.8349 243.76 42.5801Z" fill="#263238"/>
<path d="M238.721 57.1358C238.721 56.535 239.468 55.1395 240.054 55.062C241.623 54.8552 244.443 55.062 244.366 59.0869C244.258 64.5913 238.823 63.3444 238.817 63.1894C238.811 63.0343 238.664 59.2161 238.721 57.1358Z" fill="#FFBE9D"/>
<path d="M240.514 61.1349C240.514 61.1349 240.61 61.2059 240.769 61.2835C240.992 61.3856 241.246 61.3972 241.477 61.3158C242.058 61.109 242.555 60.1981 242.6 59.2032C242.623 58.7324 242.542 58.2623 242.364 57.8271C242.316 57.6544 242.228 57.496 242.107 57.3654C241.986 57.2349 241.836 57.1361 241.668 57.0777C241.56 57.0446 241.443 57.0518 241.339 57.0979C241.235 57.1441 241.15 57.2262 241.101 57.3296C241.024 57.4782 241.056 57.588 241.031 57.601C241.005 57.6139 240.916 57.5041 240.96 57.2779C240.996 57.1423 241.075 57.0221 241.184 56.9355C241.337 56.8246 241.527 56.7783 241.713 56.8063C241.934 56.8572 242.139 56.9639 242.308 57.1163C242.478 57.2688 242.607 57.4622 242.683 57.6785C242.907 58.1603 243.01 58.6907 242.982 59.2226C242.925 60.3338 242.345 61.361 241.554 61.5742C241.407 61.6128 241.254 61.6183 241.105 61.5904C240.957 61.5625 240.816 61.5018 240.693 61.4127C240.527 61.2706 240.495 61.1478 240.514 61.1349Z" fill="#EB996E"/>
<path d="M248.212 50.2167C248.405 49.6933 248.508 49.1406 248.518 48.5821C248.722 45.8694 248.014 43.1667 246.509 40.9132C246.229 40.4246 245.868 39.9877 245.444 39.6211C245.335 39.6857 247.038 41.6304 247.804 44.6411C248.569 47.6518 248.091 50.2102 248.212 50.2167Z" fill="#1C95D6"/>
<path d="M225.085 33.9616C224.447 36.1647 220.901 38.8071 219.344 40.4223C216.321 43.5557 215.76 44.0144 215.154 53.9897C213.892 50.7882 213.335 47.3465 213.521 43.9046C213.782 41.0168 215.067 38.3225 217.138 36.3197C218.19 35.3272 219.456 34.5972 220.836 34.1878C222.215 33.7784 223.67 33.701 225.085 33.9616Z" fill="#263238"/>
<path d="M246.529 42.6899C246.223 42.779 245.908 42.8374 245.591 42.8643C245.291 42.9095 244.921 42.9612 244.481 42.9871C244.041 43.0129 243.556 43.0646 243.008 43.0581C241.729 43.0834 240.45 43.0122 239.181 42.8449C237.619 42.6311 236.076 42.2876 234.569 41.8177C233.07 41.3285 231.611 40.7193 230.207 39.9958C229.066 39.3925 227.97 38.7059 226.928 37.9413C226.475 37.6312 226.099 37.2952 225.761 37.0303C225.423 36.7655 225.123 36.5006 224.919 36.2874C224.675 36.0783 224.449 35.8493 224.243 35.6025C224.513 35.7753 224.767 35.972 225.002 36.1905C225.232 36.3907 225.519 36.6298 225.869 36.8817C226.22 37.1337 226.603 37.4567 227.062 37.7539C228.113 38.4737 229.21 39.1213 230.347 39.6921C231.74 40.3959 233.183 40.992 234.665 41.4753C236.156 41.9328 237.678 42.2804 239.219 42.5154C240.487 42.6936 241.766 42.7864 243.046 42.7932C243.588 42.7932 244.079 42.7932 244.513 42.7932C244.947 42.7932 245.317 42.7609 245.617 42.7286C245.919 42.6906 246.224 42.6776 246.529 42.6899Z" fill="#455A64"/>
<path d="M246.841 46.6698C246.633 46.731 246.419 46.7679 246.203 46.7797C245.617 46.8497 245.027 46.8864 244.436 46.8895C240.52 46.9296 236.665 45.896 233.281 43.8982C232.773 43.5995 232.281 43.2739 231.807 42.9226C231.621 42.8064 231.452 42.6652 231.303 42.5027C231.335 42.4575 232.094 42.9872 233.396 43.6979C236.794 45.5571 240.581 46.5713 244.443 46.6569C245.916 46.6957 246.835 46.6117 246.841 46.6698Z" fill="#455A64"/>
<path d="M248.2 46.8828C248.28 47.1535 248.325 47.4337 248.334 47.7162C248.385 48.2654 248.417 49.0536 248.41 50.0292C248.395 51.1735 248.323 52.3164 248.193 53.4533C248.046 54.8503 247.771 56.2302 247.37 57.5752C246.572 60.0426 244.942 62.1467 242.765 63.5191C242.108 63.9161 241.411 64.2409 240.686 64.4882C240.425 64.5918 240.153 64.6655 239.876 64.7078C240.12 64.5697 240.376 64.455 240.641 64.3654C241.337 64.0736 242.007 63.7236 242.644 63.3188C243.581 62.711 244.411 61.9489 245.1 61.064C245.964 60.0016 246.626 58.7857 247.052 57.4783C247.448 56.1513 247.727 54.7914 247.887 53.4146C248.047 52.1224 248.129 50.9918 248.174 50.0227C248.219 49.0536 248.219 48.2654 248.174 47.7292C248.162 47.4468 248.17 47.1639 248.2 46.8828Z" fill="#455A64"/>
<path d="M173.548 78.6694L189.315 94.8212C191.388 94.3366 216.831 78.9343 216.831 78.9343L220.856 98.7557C220.856 98.7557 194.813 110.902 187.65 109.429C186.477 109.19 184.557 109.035 183.345 107.491C177.592 100.003 166.749 84.2902 166.749 84.2902L173.548 78.6694Z" fill="#FFBE9D"/>
<path d="M194.226 226.871L202.008 243.96L214.567 238.08L206.517 216.935L194.226 226.871Z" fill="#FFBE9D"/>
<path d="M200.554 242.816L205.102 251.603C205.102 251.603 193.442 263.794 194.539 266.546L221.902 253.256L214.382 235.638L200.554 242.816Z" fill="#455A64"/>
<path d="M212.979 246.292C213.279 246.254 213.584 246.325 213.837 246.493C214.091 246.661 214.277 246.915 214.363 247.21C214.42 247.513 214.361 247.827 214.195 248.087C214.03 248.347 213.773 248.533 213.476 248.605C213.156 248.662 212.826 248.592 212.555 248.411C212.283 248.23 212.09 247.95 212.015 247.63C211.988 247.307 212.085 246.986 212.286 246.735C212.487 246.483 212.776 246.32 213.093 246.279" fill="#E0E0E0"/>
<g opacity="0.6">
<path opacity="0.6" d="M221.902 253.231L220.76 251.041L194.954 264.608C194.954 264.608 193.99 265.739 194.539 266.546L221.902 253.231Z" fill="white"/>
</g>
<path d="M204.572 251.686C204.642 251.822 205.337 251.557 206.205 251.686C207.072 251.816 207.684 252.203 207.78 252.087C207.876 251.971 207.308 251.292 206.262 251.17C205.216 251.047 204.483 251.564 204.572 251.686Z" fill="#263238"/>
<path d="M202.269 254.271C202.301 254.42 202.99 254.368 203.717 254.723C204.444 255.079 204.859 255.615 204.993 255.544C205.127 255.473 204.846 254.665 203.941 254.252C203.035 253.838 202.212 254.142 202.269 254.271Z" fill="#263238"/>
<path d="M202.289 258.542C202.423 258.542 202.289 257.747 201.593 257.172C200.898 256.597 200.139 256.61 200.133 256.746C200.126 256.881 200.707 257.094 201.268 257.579C201.829 258.063 202.148 258.593 202.289 258.542Z" fill="#263238"/>
<path d="M203.271 248.295C203.386 248.392 203.909 247.907 204.687 247.591C205.465 247.274 206.167 247.229 206.186 247.08C206.205 246.932 205.408 246.725 204.489 247.08C203.571 247.435 203.15 248.217 203.271 248.295Z" fill="#263238"/>
<path d="M193.608 236.181L174.224 182.797C174.224 182.797 174.683 173.926 176.297 171.122C177.911 168.318 226.781 151.973 226.781 151.973C226.781 151.973 239.232 148.936 247.53 151.973C255.828 155.009 264.26 158.756 263.431 164.648C263.297 165.549 263.084 166.436 262.793 167.297C261.397 171.446 258.779 175.062 255.291 177.656C251.804 180.251 247.614 181.7 243.288 181.808L236.795 182.557L203.851 188.928C203.508 188.999 203.183 189.141 202.896 189.345C202.609 189.549 202.367 189.811 202.184 190.114C202.002 190.417 201.883 190.755 201.835 191.107C201.787 191.458 201.811 191.816 201.906 192.158L212.545 228.073C212.545 228.073 200.924 233.817 193.608 236.181Z" fill="#263238"/>
<path d="M176.489 199.239L176.029 218.053L189.857 218.395L191.854 195.821L176.489 199.239Z" fill="#FFBE9D"/>
<path d="M176.029 215.545L175.455 226.283C175.455 226.283 159.701 232.02 159.509 234.953L189.857 235.263L190.788 216.095L176.029 215.545Z" fill="#455A64"/>
<path d="M175.315 220.23C175.269 220.049 175.269 219.86 175.315 219.68C175.417 219.171 175.636 218.693 175.953 218.285C176.052 218.131 176.175 217.993 176.316 217.878C176.41 217.8 176.521 217.747 176.64 217.722C176.759 217.697 176.882 217.702 176.999 217.736C177.066 217.756 177.128 217.792 177.18 217.84C177.231 217.888 177.272 217.947 177.298 218.013C177.344 218.134 177.344 218.267 177.298 218.388C177.21 218.585 177.103 218.774 176.98 218.95C176.744 219.312 176.546 219.674 176.246 220.081C176.149 220.2 176.024 220.293 175.882 220.35C175.741 220.408 175.587 220.428 175.436 220.41C175.154 220.372 174.885 220.265 174.651 220.1C174.232 219.823 173.844 219.497 173.497 219.131C173.335 218.962 173.184 218.783 173.044 218.595C172.883 218.408 172.766 218.187 172.7 217.949C172.673 217.816 172.693 217.679 172.758 217.56C172.822 217.442 172.926 217.351 173.051 217.303C173.172 217.27 173.3 217.266 173.424 217.29C173.548 217.315 173.664 217.368 173.765 217.445C174.055 217.672 174.314 217.937 174.537 218.233C174.85 218.638 175.103 219.086 175.289 219.564C175.369 219.732 175.414 219.914 175.423 220.1C175.114 219.492 174.749 218.914 174.333 218.375C174.114 218.11 173.866 217.871 173.593 217.665C173.533 217.615 173.463 217.58 173.388 217.562C173.312 217.544 173.234 217.544 173.159 217.561C173.096 217.588 173.046 217.639 173.018 217.703C172.991 217.766 172.989 217.838 173.012 217.904C173.081 218.087 173.182 218.256 173.312 218.401C173.45 218.579 173.597 218.749 173.752 218.912C174.085 219.251 174.453 219.555 174.849 219.816C175.039 219.952 175.257 220.04 175.487 220.074C175.58 220.088 175.674 220.076 175.761 220.04C175.847 220.004 175.923 219.944 175.978 219.868C176.233 219.538 176.476 219.125 176.705 218.782C176.822 218.626 176.924 218.46 177.011 218.285C177.075 218.123 177.011 218.026 176.916 217.981C176.642 217.878 176.374 218.162 176.189 218.401C175.776 218.943 175.479 219.566 175.315 220.23Z" fill="#263238"/>
<path d="M184.857 225.049C185.143 225.149 185.385 225.349 185.54 225.613C185.694 225.876 185.75 226.187 185.699 226.49C185.616 226.787 185.426 227.041 185.165 227.2C184.904 227.36 184.594 227.413 184.296 227.349C183.983 227.257 183.717 227.047 183.552 226.762C183.387 226.477 183.336 226.139 183.409 225.818C183.524 225.515 183.751 225.269 184.041 225.133C184.332 224.997 184.663 224.98 184.965 225.088" fill="#E0E0E0"/>
<g opacity="0.6">
<path opacity="0.6" d="M189.838 235.263L189.78 232.77L160.708 233.416C160.708 233.416 159.349 233.997 159.49 234.966L189.838 235.263Z" fill="white"/>
</g>
<path d="M174.97 226.121C174.97 226.27 175.71 226.348 176.437 226.839C177.164 227.33 177.541 227.963 177.681 227.905C177.821 227.846 177.604 226.981 176.718 226.399C175.831 225.818 174.938 225.986 174.97 226.121Z" fill="#263238"/>
<path d="M171.768 227.42C171.736 227.569 172.374 227.827 172.872 228.467C173.369 229.107 173.509 229.759 173.656 229.759C173.803 229.759 173.905 228.906 173.274 228.125C172.642 227.343 171.775 227.278 171.768 227.42Z" fill="#263238"/>
<path d="M169.938 231.264C170.072 231.297 170.288 230.547 169.938 229.72C169.587 228.893 168.879 228.564 168.815 228.686C168.751 228.809 169.172 229.255 169.453 229.94C169.734 230.625 169.778 231.245 169.938 231.264Z" fill="#263238"/>
<path d="M175.27 222.504C175.334 222.639 176.016 222.439 176.852 222.504C177.687 222.568 178.338 222.846 178.415 222.717C178.491 222.588 177.872 222.071 176.884 221.987C175.895 221.903 175.2 222.381 175.27 222.504Z" fill="#263238"/>
<path d="M184.569 147.024C184.569 147.024 176.278 146.378 175.359 155.455C174.441 164.532 170.11 206.772 170.11 206.772L192.893 208.71L195.891 165.275L226.781 151.966C226.781 151.966 190.099 145.848 184.569 147.024Z" fill="#263238"/>
<path d="M218.719 134.748C218.719 134.748 213.693 149.026 214.65 150.615C215.606 152.205 228.542 158.762 228.542 158.762L260.899 171.348C260.899 171.348 264.222 165.992 264.222 157.78C264.222 149.569 252.97 134.748 252.97 134.748H218.719Z" fill="#263238"/>
<path d="M228.312 151.223C228.264 151.254 228.213 151.28 228.159 151.301L227.7 151.52L225.908 152.328L219.185 155.293L195.961 165.417L196.064 165.269C195.77 169.559 195.426 174.197 195.126 178.991C194.341 190.194 193.614 200.525 193.04 208.71V208.859H192.893L178.791 207.606L174.907 207.237L173.893 207.134C173.774 207.126 173.657 207.109 173.542 207.082C173.658 207.072 173.776 207.072 173.893 207.082L174.913 207.147L178.804 207.438L192.9 208.542L192.747 208.678C193.302 200.505 194.022 190.168 194.762 178.959C195.094 174.165 195.4 169.526 195.713 165.243V165.114L195.808 165.068L219.083 155.067L225.863 152.192L227.681 151.436L228.153 151.249L228.312 151.223Z" fill="#455A64"/>
<path d="M254.049 152.651C253.74 152.593 253.437 152.508 253.143 152.399L250.706 151.604C248.047 150.689 245.319 149.991 242.549 149.518C239.783 149.055 236.959 149.09 234.206 149.621C232.095 150.067 230.883 150.674 230.857 150.603C231.12 150.428 231.403 150.285 231.699 150.176C232.49 149.834 233.31 149.564 234.148 149.369C236.929 148.755 239.799 148.683 242.606 149.156C245.394 149.629 248.132 150.366 250.783 151.359C251.804 151.721 252.626 152.037 253.188 152.263C253.487 152.362 253.776 152.492 254.049 152.651Z" fill="#455A64"/>
<path d="M249.475 145.118C248.532 145.063 247.587 145.063 246.643 145.118C245.776 145.176 244.73 145.311 243.582 145.447C242.434 145.583 241.164 145.744 239.857 145.996C237.609 146.359 235.454 147.169 233.517 148.38C232.739 148.921 232.004 149.522 231.316 150.176C231.437 149.937 231.594 149.719 231.782 149.53C232.261 149.011 232.793 148.545 233.37 148.141C235.307 146.844 237.494 145.98 239.787 145.609C241.113 145.357 242.389 145.208 243.544 145.085C244.698 144.962 245.744 144.859 246.631 144.833C247.332 144.8 248.034 144.833 248.729 144.93C248.986 144.953 249.238 145.016 249.475 145.118Z" fill="#455A64"/>
<path d="M202.467 246.518C202.344 246.353 202.257 246.164 202.212 245.962C202.057 245.419 202.013 244.85 202.084 244.289C202.103 244.095 202.146 243.904 202.212 243.72C202.257 243.604 202.331 243.502 202.428 243.424C202.524 243.345 202.639 243.294 202.76 243.275C202.835 243.266 202.91 243.275 202.98 243.299C203.051 243.324 203.115 243.364 203.169 243.417C203.261 243.524 203.319 243.657 203.334 243.798C203.354 244.032 203.354 244.268 203.334 244.502C203.296 244.967 203.296 245.42 203.226 245.962C203.201 246.119 203.136 246.267 203.036 246.389C202.936 246.512 202.806 246.606 202.658 246.66C202.379 246.745 202.082 246.756 201.797 246.692C201.281 246.604 200.778 246.453 200.298 246.24C200.069 246.143 199.846 246.033 199.629 245.911C199.398 245.798 199.192 245.64 199.023 245.445C198.927 245.329 198.875 245.183 198.875 245.032C198.875 244.881 198.927 244.735 199.023 244.618C199.119 244.529 199.236 244.465 199.363 244.434C199.491 244.402 199.623 244.403 199.75 244.438C200.127 244.541 200.489 244.693 200.828 244.89C201.316 245.154 201.763 245.489 202.154 245.885C202.306 246.019 202.433 246.178 202.531 246.356C201.964 245.887 201.355 245.472 200.713 245.116C200.391 244.955 200.053 244.83 199.705 244.741C199.527 244.741 199.335 244.741 199.265 244.832C199.223 244.893 199.204 244.968 199.211 245.042C199.218 245.117 199.251 245.186 199.303 245.239C199.448 245.392 199.622 245.515 199.814 245.601C200.019 245.718 200.232 245.822 200.451 245.911C200.91 246.106 201.39 246.246 201.88 246.331C202.102 246.386 202.334 246.386 202.556 246.331C202.646 246.299 202.726 246.242 202.786 246.166C202.845 246.091 202.883 246 202.894 245.904C202.958 245.458 202.977 244.935 203.022 244.489C203.048 244.275 203.058 244.059 203.054 243.843C203.054 243.656 202.952 243.572 202.818 243.578C202.524 243.578 202.416 244.005 202.365 244.328C202.26 245.058 202.294 245.801 202.467 246.518Z" fill="#263238"/>
<path d="M217.922 78.4561C215.641 79.3512 213.74 81.0236 212.545 83.1853C210.529 86.8098 211.071 88.5929 211.594 90.7314C212.117 92.8699 213.055 97.1146 213.106 96.8432C213.157 96.5719 217.922 78.4561 217.922 78.4561Z" fill="#FFBE9D"/>
<path d="M252.033 84.9102C252.033 84.9102 249.392 78.4495 248.844 77.8552L239.098 75.3613L233.006 78.3849C231.249 79.2871 229.281 79.6827 227.317 79.5285C225.135 79.3217 223.222 78.4302 222.259 76.7956L218.432 77.8422C218.432 77.8422 212.385 96.3263 212.506 101.443C212.628 106.56 214.732 121.097 214.49 123.965C214.248 126.834 215.275 134.748 218.719 134.748H252.97C252.97 134.748 260.701 132.577 261.039 127.867C261.377 123.158 252.033 84.9102 252.033 84.9102Z" fill="#1C95D6"/>
<path d="M241.12 112.963C240.952 113.153 240.759 113.318 240.546 113.454C239.989 113.859 239.395 114.209 238.773 114.5C237.846 114.936 236.862 115.234 235.851 115.385C234.606 115.568 233.339 115.513 232.114 115.224C229.9 114.651 227.887 113.468 226.297 111.806C225.815 111.316 225.37 110.791 224.964 110.236C224.803 110.039 224.668 109.822 224.562 109.59C224.613 109.551 225.231 110.436 226.475 111.619C228.08 113.182 230.058 114.295 232.216 114.849C234.383 115.348 236.65 115.135 238.69 114.242C240.24 113.583 241.082 112.898 241.12 112.963Z" fill="#263238"/>
<g opacity="0.3">
<path opacity="0.3" d="M225.136 110.392C225.372 113.045 226.635 115.495 228.65 117.208C229.66 118.041 230.85 118.622 232.124 118.902C233.397 119.183 234.718 119.156 235.979 118.823C237.232 118.46 238.362 117.754 239.246 116.783C240.129 115.812 240.731 114.613 240.986 113.318C239.26 114.216 237.421 114.869 235.519 115.256C233.467 115.535 231.378 115.205 229.506 114.308C227.634 113.41 226.058 111.982 224.97 110.198L225.244 110.495" fill="black"/>
</g>
<g opacity="0.3">
<path opacity="0.3" d="M253.953 116.012C250.336 108.905 246.509 101.54 240.182 96.7593C241.585 101.618 242.842 106.185 244.392 110.973C244.832 112.336 245.527 113.925 246.943 114.151C247.46 114.235 247.989 114.106 248.499 114.21C249.379 114.384 249.979 115.179 250.451 115.947C250.834 116.769 251.438 117.465 252.192 117.957C252.996 118.357 254.221 117.957 254.297 117.078C254.283 116.697 254.164 116.328 253.953 116.012Z" fill="black"/>
</g>
<path d="M264.222 102.445L246.968 110.637C246.968 110.637 239.314 95.1311 238.721 92.9797C238.128 90.8283 236.808 87.1651 238.766 82.6426C239.642 80.7218 241.172 79.1848 243.075 78.3128C244.978 77.4408 247.128 77.2922 249.131 77.894C256.74 80.6463 264.222 102.445 264.222 102.445Z" fill="#1C95D6"/>
<path d="M214.191 102.445C213.387 102.445 204.132 107.348 204.132 107.348L198.002 89.3424C205.956 84.975 214.796 78.8115 219.395 77.5581L215.396 91.6166L214.191 102.445Z" fill="#1C95D6"/>
<path d="M248.659 109.551C251.924 114.991 254.208 118.118 254.208 118.118L224.899 136.208L228.312 144.245L263.941 129.386C265.139 128.903 266.207 128.14 267.058 127.159C267.908 126.177 268.517 125.005 268.833 123.739C269.126 122.549 269.098 121.302 268.75 120.127L262.691 103.188L248.659 109.551Z" fill="#FFBE9D"/>
<path d="M261.339 120.884C260.218 120.178 259.045 119.56 257.831 119.036C255.783 118.254 253.972 118.235 254.004 118.119C255.354 118.021 256.71 118.217 257.98 118.694C259.249 119.171 260.403 119.918 261.364 120.884H261.339Z" fill="#EB996E"/>
<path d="M215.256 86.4287C215.059 86.6841 214.892 86.9616 214.758 87.2557C214.377 88.027 214.059 88.8286 213.808 89.6526C213.013 92.3281 212.527 95.0881 212.36 97.877C212.15 100.644 212.182 103.424 212.456 106.185C212.537 107.025 212.665 107.86 212.838 108.686C212.884 108.996 212.966 109.299 213.081 109.59C213.088 109.28 213.058 108.969 212.991 108.666C212.915 108.078 212.813 107.226 212.743 106.173C212.547 103.417 212.547 100.652 212.743 97.8964C212.916 95.1306 213.359 92.3888 214.063 89.7107C214.291 88.892 214.566 88.0874 214.886 87.3009C215.04 87.0248 215.164 86.7323 215.256 86.4287Z" fill="#263238"/>
<path d="M202.155 141.706L209.483 138.166L223.745 137.016L224.913 136.202L228.325 144.239C228.325 144.239 224.587 146.048 222.629 146.209L210.632 145.841L204.362 146.487L202.155 141.706Z" fill="#FFBE9D"/>
<path d="M264.222 102.445C264.105 102.471 263.991 102.512 263.884 102.567L262.927 102.974L259.438 104.544L247.957 109.836L246.56 110.482L246.777 110.559C244.787 106.405 243.046 102.684 241.809 99.9961C241.209 98.7039 240.724 97.612 240.367 96.8238L239.978 95.9646C239.939 95.8606 239.885 95.7627 239.819 95.6738C239.842 95.7818 239.874 95.8877 239.914 95.9904C239.991 96.1907 240.099 96.4879 240.252 96.8691C240.552 97.6379 241.011 98.7362 241.605 100.099C242.785 102.813 244.494 106.56 246.484 110.714L246.554 110.863L246.701 110.792L248.098 110.146L259.508 104.771L262.953 103.104L263.884 102.632C264.003 102.583 264.117 102.52 264.222 102.445Z" fill="#263238"/>
<path d="M248.346 77.9393C248.346 78.0039 247.536 77.9781 246.286 78.2817C244.662 78.6693 243.163 79.4737 241.934 80.6177C240.706 81.7616 239.788 83.2065 239.27 84.8134C238.856 86.0474 238.811 86.8679 238.747 86.8615C238.718 86.6709 238.718 86.477 238.747 86.2865C238.798 85.7637 238.896 85.2469 239.04 84.7424C239.519 83.0617 240.447 81.5475 241.721 80.3665C242.995 79.1856 244.566 78.3837 246.261 78.0491C246.752 77.9496 247.252 77.8976 247.753 77.8941C247.952 77.8752 248.153 77.8905 248.346 77.9393Z" fill="#263238"/>
<path d="M258.264 89.2002C258.22 89.4674 258.143 89.7278 258.035 89.9755C257.802 90.6764 257.471 91.34 257.053 91.946L256.6 92.521L256.351 92.8311L256.058 93.1089L255.42 93.6839L254.68 94.1943C253.546 94.8938 252.32 95.4267 251.038 95.7771C248.333 96.546 245.827 96.9078 244.092 97.4569C243.154 97.7543 242.234 98.1059 241.336 98.51C241.544 98.3386 241.771 98.1933 242.013 98.0771C242.281 97.9177 242.563 97.7815 242.854 97.6701L243.397 97.4375L244.034 97.2308C245.776 96.5847 248.289 96.21 250.961 95.4541C252.215 95.112 253.416 94.5991 254.533 93.9294L255.26 93.4449L255.898 92.9022C255.994 92.8117 256.096 92.7342 256.185 92.6437L256.427 92.353L256.887 91.8103C257.31 91.2257 257.663 90.5925 257.939 89.9238C258.023 89.6721 258.132 89.4297 258.264 89.2002Z" fill="white"/>
<path d="M255.994 85.0847C255.747 85.1132 255.505 85.1718 255.273 85.2591C254.666 85.554 254.164 86.0326 253.838 86.6288C253.608 86.9971 253.379 87.417 253.072 87.8499C252.739 88.3022 252.349 88.7084 251.912 89.058C250.893 89.8285 249.739 90.3963 248.512 90.7313C247.236 91.1254 245.961 91.3774 244.87 91.6293C243.884 91.8554 242.921 92.1733 241.993 92.5791C241.153 92.9813 240.37 93.4963 239.665 94.1102C239.665 94.1102 239.697 94.0456 239.78 93.9487C239.9 93.802 240.03 93.6639 240.169 93.5352C240.686 93.0599 241.268 92.6637 241.898 92.3594C242.827 91.915 243.8 91.5707 244.8 91.3322C245.916 91.035 247.16 90.7959 248.416 90.4083C249.603 90.0815 250.722 89.5409 251.72 88.8125C252.144 88.4875 252.524 88.1074 252.849 87.6819C253.149 87.2813 253.391 86.8614 253.646 86.4996C254.009 85.8792 254.566 85.3993 255.228 85.1364C255.41 85.0694 255.603 85.0387 255.796 85.046C255.924 85.0524 255.994 85.0718 255.994 85.0847Z" fill="white"/>
<path d="M242.077 100.623C241.994 100.686 241.904 100.738 241.809 100.778L240.999 101.159C240.297 101.482 239.27 101.941 237.982 102.451C236.471 103.057 234.916 103.546 233.332 103.912C231.381 104.377 229.366 104.498 227.375 104.267C225.404 103.939 223.478 103.382 221.634 102.606C220.14 102.006 218.585 101.573 216.997 101.314C215.927 101.153 214.838 101.177 213.776 101.385C213.023 101.547 212.628 101.728 212.622 101.696C212.615 101.663 212.711 101.637 212.896 101.547C213.171 101.429 213.455 101.332 213.744 101.256C214.817 100.995 215.928 100.934 217.023 101.075C218.636 101.305 220.218 101.724 221.736 102.322C223.564 103.069 225.468 103.611 227.413 103.937C229.367 104.161 231.344 104.052 233.262 103.614C234.835 103.265 236.382 102.805 237.892 102.238C239.168 101.76 240.227 101.34 240.941 101.049L241.77 100.726C241.866 100.675 241.97 100.64 242.077 100.623Z" fill="white"/>
<path d="M213.763 94.692C213.763 94.692 213.833 94.621 213.986 94.5111C214.214 94.3596 214.458 94.234 214.713 94.1364C215.663 93.7744 216.689 93.6676 217.692 93.8263C219.169 94.0553 220.588 94.5731 221.87 95.351C223.395 96.3106 224.985 97.1612 226.628 97.8966C228.315 98.5027 230.102 98.7746 231.89 98.6977C233.354 98.6423 234.811 98.4651 236.246 98.1679C237.477 97.9289 238.472 97.6898 239.155 97.5218C239.506 97.4227 239.864 97.3514 240.226 97.3086C239.889 97.4485 239.541 97.5629 239.187 97.651C238.511 97.8513 237.528 98.1227 236.297 98.394C234.851 98.728 233.378 98.9312 231.896 99.0013C230.068 99.0981 228.238 98.828 226.513 98.2067C224.855 97.4673 223.254 96.6035 221.723 95.6224C220.477 94.8497 219.099 94.3215 217.66 94.0653C216.692 93.8893 215.695 93.9558 214.758 94.2592C214.101 94.4724 213.782 94.692 213.763 94.692Z" fill="white"/>
<path d="M210.478 103.879C210.478 103.879 210.408 103.879 210.28 103.879C210.094 103.842 209.913 103.786 209.738 103.711C209.084 103.424 208.509 102.981 208.061 102.419C207.39 101.61 206.902 100.662 206.632 99.6409C206.335 98.3989 206.181 97.1263 206.173 95.8485C206.163 94.5918 206.065 93.3375 205.879 92.0949C205.702 91.0915 205.347 90.1286 204.833 89.2522C204.34 88.4521 203.662 87.7866 202.856 87.314C202.856 87.314 202.926 87.314 203.047 87.3721C203.224 87.4406 203.395 87.5249 203.558 87.6241C204.146 88.0158 204.644 88.5315 205.018 89.1359C205.58 90.0221 205.97 91.0089 206.166 92.0432C206.374 93.3009 206.483 94.5733 206.492 95.8485C206.499 97.1028 206.64 98.3527 206.913 99.5763C207.163 100.56 207.61 101.482 208.226 102.283C208.648 102.82 209.176 103.26 209.776 103.575C210.217 103.789 210.484 103.847 210.478 103.879Z" fill="white"/>
<path d="M212.226 99.2921C211.877 98.6097 211.571 97.9064 211.307 97.1859L209.171 92.1078C208.316 90.1244 207.525 88.3348 206.919 87.062C206.313 85.7893 205.892 85.0205 205.93 84.9946C206.078 85.14 206.203 85.3078 206.3 85.4921C206.511 85.828 206.798 86.3255 207.13 86.9522C207.767 88.2056 208.622 89.9823 209.477 91.9722C210.331 93.962 211.039 95.784 211.524 97.1407C211.767 97.7868 211.952 98.3489 212.073 98.73C212.148 98.9099 212.199 99.0988 212.226 99.2921Z" fill="white"/>
<path d="M161.008 113.183L202.135 113.525C203.468 113.525 204.744 114.171 204.942 115.508L209.439 145.874H230.621C230.949 145.874 231.264 146.006 231.496 146.241C231.728 146.476 231.858 146.795 231.858 147.127C231.858 147.459 231.728 147.778 231.496 148.013C231.264 148.248 230.949 148.38 230.621 148.38H162.992L158.368 116.335C158.308 115.948 158.332 115.552 158.437 115.174C158.542 114.797 158.726 114.447 158.976 114.147C159.227 113.848 159.538 113.607 159.888 113.441C160.239 113.274 160.621 113.186 161.008 113.183Z" fill="#E0E0E0"/>
<path d="M161.008 113.183C160.793 113.174 160.579 113.195 160.37 113.247C159.74 113.397 159.183 113.771 158.801 114.3C158.519 114.691 158.343 115.15 158.291 115.631C158.282 116.206 158.333 116.78 158.444 117.343L159.037 121.575C159.943 127.939 161.244 137.081 162.864 148.393V148.503H162.979L228.612 148.542H230.378C230.702 148.573 231.027 148.51 231.316 148.361C231.534 148.238 231.715 148.058 231.841 147.84C231.968 147.622 232.034 147.373 232.034 147.121C232.034 146.868 231.968 146.62 231.841 146.402C231.715 146.184 231.534 146.004 231.316 145.88C231.03 145.735 230.71 145.672 230.391 145.699H209.483L209.643 145.841C208.022 134.968 206.511 124.825 205.178 115.722C205.137 115.114 204.865 114.547 204.419 114.139C203.97 113.757 203.424 113.513 202.843 113.435C202.292 113.38 201.738 113.361 201.185 113.376H199.571L193.378 113.331L182.375 113.267L166.71 113.183H161.008C161.008 113.183 161.129 113.183 161.378 113.183H162.456L166.646 113.241L182.312 113.415L193.314 113.525L199.507 113.59H201.121C201.662 113.576 202.203 113.596 202.741 113.648C203.27 113.721 203.768 113.945 204.176 114.294C204.562 114.669 204.791 115.18 204.814 115.722C206.16 124.818 207.653 134.968 209.279 145.841V145.984H230.327C230.59 145.955 230.855 146.002 231.093 146.119C231.315 146.246 231.486 146.449 231.575 146.691C231.664 146.934 231.665 147.201 231.577 147.444C231.49 147.685 231.321 147.887 231.099 148.012C230.859 148.135 230.588 148.184 230.321 148.154H228.618L162.985 148.193L163.106 148.303C161.461 137.029 160.115 127.861 159.184 121.498C158.948 119.915 158.737 118.5 158.546 117.279C158.426 116.723 158.37 116.155 158.38 115.586C158.422 115.121 158.585 114.675 158.852 114.294C159.218 113.767 159.759 113.391 160.377 113.234C160.586 113.207 160.797 113.189 161.008 113.183Z" fill="#263238"/>
<path d="M181.521 133.004C182.944 133.004 184.098 131.835 184.098 130.394C184.098 128.952 182.944 127.784 181.521 127.784C180.098 127.784 178.944 128.952 178.944 130.394C178.944 131.835 180.098 133.004 181.521 133.004Z" fill="white"/>
<path d="M207.8 148.089C207.736 148.089 206.428 140.369 204.872 130.827C203.316 121.284 202.104 113.531 202.161 113.525C202.219 113.518 203.526 121.245 205.082 130.788C206.639 140.33 207.857 148.083 207.8 148.089Z" fill="#263238"/>
<path d="M2.18762 281.406C2.18762 281.315 63.8849 281.238 139.959 281.238C216.033 281.238 277.73 281.289 277.73 281.406C277.73 281.522 216.046 281.574 139.959 281.574C63.8721 281.574 2.18762 281.47 2.18762 281.406Z" fill="#263238"/>
</g>
</svg>
