<svg width="16" height="14" viewBox="0 0 16 14" fill="none" xmlns="http://www.w3.org/2000/svg">
<path d="M12.6666 13L10.6666 11M10.6666 11L12.6666 9M10.6666 11H14.6666M10.3333 1.19384C11.3105 1.58943 11.9999 2.54754 11.9999 3.66667C11.9999 4.78579 11.3105 5.7439 10.3333 6.13949M7.99992 9H5.33325C4.09074 9 3.46949 9 2.97943 9.20299C2.32602 9.47364 1.80689 9.99277 1.53624 10.6462C1.33325 11.1362 1.33325 11.7575 1.33325 13M8.99992 3.66667C8.99992 5.13943 7.80601 6.33333 6.33325 6.33333C4.86049 6.33333 3.66659 5.13943 3.66659 3.66667C3.66659 2.19391 4.86049 1 6.33325 1C7.80601 1 8.99992 2.19391 8.99992 3.66667Z" stroke="#80808F" stroke-linecap="round" stroke-linejoin="round"/>
</svg>
