<svg width="18" height="18" viewBox="0 0 18 18" fill="none" xmlns="http://www.w3.org/2000/svg">
<path d="M4.83333 5.49984H9M4.83333 8.4165H11.5M7.06979 13.4165H12.5C13.9001 13.4165 14.6002 13.4165 15.135 13.144C15.6054 12.9043 15.9878 12.5219 16.2275 12.0515C16.5 11.5167 16.5 10.8166 16.5 9.4165V4.9165C16.5 3.51637 16.5 2.81631 16.2275 2.28153C15.9878 1.81112 15.6054 1.42867 15.135 1.18899C14.6002 0.916504 13.9001 0.916504 12.5 0.916504H5.5C4.09987 0.916504 3.3998 0.916504 2.86502 1.18899C2.39462 1.42867 2.01217 1.81112 1.77248 2.28153C1.5 2.81631 1.5 3.51637 1.5 4.9165V15.3628C1.5 15.8068 1.5 16.0288 1.59102 16.1428C1.67019 16.242 1.79022 16.2997 1.91712 16.2996C2.06302 16.2994 2.23639 16.1607 2.58313 15.8833L4.57101 14.293C4.9771 13.9682 5.18014 13.8057 5.40624 13.6902C5.60683 13.5877 5.82036 13.5128 6.04101 13.4675C6.28972 13.4165 6.54975 13.4165 7.06979 13.4165Z" stroke="#0BA5EC" stroke-width="1.67" stroke-linecap="round" stroke-linejoin="round"/>
</svg>
