<svg width="20" height="17" viewBox="0 0 20 17" fill="none" xmlns="http://www.w3.org/2000/svg">
<path d="M13.3334 16V2.66667C13.3334 2.22464 13.1578 1.80072 12.8452 1.48816C12.5326 1.17559 12.1087 1 11.6667 1H8.33335C7.89133 1 7.4674 1.17559 7.15484 1.48816C6.84228 1.80072 6.66669 2.22464 6.66669 2.66667V16M3.33335 4.33333H16.6667C17.5872 4.33333 18.3334 5.07953 18.3334 6V14.3333C18.3334 15.2538 17.5872 16 16.6667 16H3.33335C2.41288 16 1.66669 15.2538 1.66669 14.3333V6C1.66669 5.07953 2.41288 4.33333 3.33335 4.33333Z" stroke="#101828" stroke-width="1.5" stroke-linecap="round" stroke-linejoin="round"/>
</svg>
