<svg width="20" height="21" viewBox="0 0 20 21" fill="none" xmlns="http://www.w3.org/2000/svg">
<path d="M11.8129 4.0185C11.8139 2.99534 9.72756 2.16663 7.15693 2.16663C4.5863 2.16663 2.50186 2.99626 2.5 4.0185M2.5 4.0185C2.5 5.04166 4.58444 5.87037 7.15693 5.87037C9.72942 5.87037 11.8139 5.04166 11.8139 4.0185L11.8139 11.2037M2.5 4.0185V15.1297C2.50093 16.1528 4.58537 16.9815 7.15693 16.9815C8.40406 16.9815 9.5301 16.7843 10.3656 16.4667M2.50093 7.72222C2.50093 8.74538 4.58538 9.5741 7.15787 9.5741C9.73036 9.5741 11.8148 8.74538 11.8148 7.72222M10.4214 12.7455C9.58133 13.0742 8.42921 13.2779 7.15693 13.2779C4.58537 13.2779 2.50093 12.4492 2.50093 11.426M17.106 11.7205C18.7424 13.3474 18.7424 15.9863 17.106 17.6131C15.4696 19.24 12.8151 19.24 11.1787 17.6131C9.54221 15.9863 9.54221 13.3474 11.1787 11.7205C12.8151 10.0936 15.4696 10.0936 17.106 11.7205Z" stroke="#101828" stroke-width="1.5" stroke-linecap="round" stroke-linejoin="round"/>
</svg>
