<svg width="20" height="17" viewBox="0 0 20 17" fill="none" xmlns="http://www.w3.org/2000/svg">
<path d="M14.1668 15.917V14.2503C14.1668 13.3663 13.8156 12.5184 13.1905 11.8933C12.5654 11.2682 11.7176 10.917 10.8335 10.917H4.16683C3.28277 10.917 2.43493 11.2682 1.80981 11.8933C1.18469 12.5184 0.833496 13.3663 0.833496 14.2503V15.917M19.1668 15.917V14.2503C19.1663 13.5118 18.9205 12.7943 18.468 12.2106C18.0155 11.6269 17.3819 11.21 16.6668 11.0253M13.3335 1.02533C14.0505 1.20891 14.686 1.62591 15.1399 2.21058C15.5937 2.79526 15.84 3.51435 15.84 4.25449C15.84 4.99463 15.5937 5.71373 15.1399 6.2984C14.686 6.88307 14.0505 7.30007 13.3335 7.48366M10.8335 4.25033C10.8335 6.09127 9.34111 7.58366 7.50016 7.58366C5.65921 7.58366 4.16683 6.09127 4.16683 4.25033C4.16683 2.40938 5.65921 0.916992 7.50016 0.916992C9.34111 0.916992 10.8335 2.40938 10.8335 4.25033Z" stroke="#0BA5EC" stroke-width="1.67" stroke-linecap="round" stroke-linejoin="round"/>
</svg>
