<svg width="16" height="15" viewBox="0 0 16 15" fill="none" xmlns="http://www.w3.org/2000/svg">
<path d="M3.21603 2.78671L6.0427 5.61337M9.81603 9.38671L12.6427 12.2134M12.6427 2.78671L9.81603 5.61337L12.1694 3.26004M3.21603 12.2134L6.0427 9.38671M14.596 7.50004C14.596 11.1819 11.6113 14.1667 7.92936 14.1667C4.24746 14.1667 1.2627 11.1819 1.2627 7.50004C1.2627 3.81814 4.24746 0.833374 7.92936 0.833374C11.6113 0.833374 14.596 3.81814 14.596 7.50004ZM10.596 7.50004C10.596 8.9728 9.40212 10.1667 7.92936 10.1667C6.4566 10.1667 5.2627 8.9728 5.2627 7.50004C5.2627 6.02728 6.4566 4.83337 7.92936 4.83337C9.40212 4.83337 10.596 6.02728 10.596 7.50004Z" stroke="#667085" stroke-width="1.3" stroke-linecap="round" stroke-linejoin="round"/>
</svg>
