<svg width="12" height="14" viewBox="0 0 12 14" fill="none" xmlns="http://www.w3.org/2000/svg">
<path d="M11.3334 13C11.3334 12.0696 11.3334 11.6044 11.2185 11.2259C10.96 10.3736 10.293 9.70669 9.44078 9.44816C9.06225 9.33333 8.59706 9.33333 7.66668 9.33333H4.33336C3.40298 9.33333 2.93779 9.33333 2.55926 9.44816C1.70699 9.70669 1.04005 10.3736 0.781513 11.2259C0.666687 11.6044 0.666687 12.0696 0.666687 13M9.00002 4C9.00002 5.65685 7.65687 7 6.00002 7C4.34317 7 3.00002 5.65685 3.00002 4C3.00002 2.34315 4.34317 1 6.00002 1C7.65687 1 9.00002 2.34315 9.00002 4Z" stroke="#80808F" stroke-linecap="round" stroke-linejoin="round"/>
</svg>
