<svg width="16" height="16" viewBox="0 0 16 16" fill="none" xmlns="http://www.w3.org/2000/svg">
<g clip-path="url(#clip0_2962_89939)">
<path d="M5.33333 5.33334H5.34M1.33333 3.46668L1.33333 6.44969C1.33333 6.77581 1.33333 6.93887 1.37017 7.09232C1.40283 7.22837 1.4567 7.35843 1.52981 7.47772C1.61226 7.61228 1.72756 7.72758 1.95817 7.95818L7.07059 13.0706C7.86262 13.8626 8.25864 14.2587 8.71529 14.407C9.11698 14.5375 9.54967 14.5375 9.95136 14.407C10.408 14.2587 10.804 13.8626 11.5961 13.0706L13.0706 11.5961C13.8626 10.8041 14.2586 10.408 14.407 9.95138C14.5375 9.54969 14.5375 9.117 14.407 8.71531C14.2586 8.25865 13.8626 7.86264 13.0706 7.0706L7.95817 1.95818C7.72756 1.72758 7.61226 1.61228 7.47771 1.52982C7.35841 1.45672 7.22835 1.40285 7.0923 1.37018C6.93885 1.33334 6.77579 1.33334 6.44967 1.33334L3.46666 1.33334C2.71993 1.33334 2.34656 1.33334 2.06134 1.47867C1.81046 1.6065 1.60648 1.81047 1.47865 2.06136C1.33333 2.34657 1.33333 2.71994 1.33333 3.46668ZM5.66666 5.33334C5.66666 5.51744 5.51742 5.66668 5.33333 5.66668C5.14923 5.66668 5 5.51744 5 5.33334C5 5.14925 5.14923 5.00001 5.33333 5.00001C5.51742 5.00001 5.66666 5.14925 5.66666 5.33334Z" stroke="#80808F" stroke-linecap="round" stroke-linejoin="round"/>
</g>
<defs>
<clipPath id="clip0_2962_89939">
<rect width="16" height="16" fill="white"/>
</clipPath>
</defs>
</svg>
