<svg width="16" height="14" viewBox="0 0 16 14" fill="none" xmlns="http://www.w3.org/2000/svg">
<path d="M8.66634 2.33333C8.66634 3.06971 7.02472 3.66667 4.99967 3.66667C2.97463 3.66667 1.33301 3.06971 1.33301 2.33333M8.66634 2.33333C8.66634 1.59695 7.02472 1 4.99967 1C2.97463 1 1.33301 1.59695 1.33301 2.33333M8.66634 2.33333V3.33333M1.33301 2.33333V10.3333C1.33301 11.0697 2.97463 11.6667 4.99967 11.6667M4.99967 6.33333C4.88731 6.33333 4.77613 6.3315 4.66634 6.3279C2.79751 6.26666 1.33301 5.69552 1.33301 5M4.99967 9C2.97463 9 1.33301 8.40305 1.33301 7.66667M14.6663 6.66667C14.6663 7.40305 13.0247 8 10.9997 8C8.97463 8 7.33301 7.40305 7.33301 6.66667M14.6663 6.66667C14.6663 5.93029 13.0247 5.33333 10.9997 5.33333C8.97463 5.33333 7.33301 5.93029 7.33301 6.66667M14.6663 6.66667V11.6667C14.6663 12.403 13.0247 13 10.9997 13C8.97463 13 7.33301 12.403 7.33301 11.6667V6.66667M14.6663 9.16667C14.6663 9.90305 13.0247 10.5 10.9997 10.5C8.97463 10.5 7.33301 9.90305 7.33301 9.16667" stroke="#80808F" stroke-linecap="round" stroke-linejoin="round"/>
</svg>
