<svg width="12" height="16" viewBox="0 0 12 16" fill="none" xmlns="http://www.w3.org/2000/svg">
<path d="M7.33335 1.51298V4.26668C7.33335 4.64005 7.33335 4.82673 7.40602 4.96934C7.46993 5.09478 7.57192 5.19677 7.69736 5.26068C7.83997 5.33334 8.02665 5.33334 8.40002 5.33334H11.1537M11.3334 6.65883V11.4667C11.3334 12.5868 11.3334 13.1468 11.1154 13.5747C10.9236 13.951 10.6177 14.2569 10.2413 14.4487C9.81351 14.6667 9.25346 14.6667 8.13335 14.6667H3.86669C2.74658 14.6667 2.18653 14.6667 1.75871 14.4487C1.38238 14.2569 1.07642 13.951 0.884674 13.5747C0.666687 13.1468 0.666687 12.5868 0.666687 11.4667V4.53334C0.666687 3.41324 0.666687 2.85319 0.884674 2.42536C1.07642 2.04904 1.38238 1.74308 1.75871 1.55133C2.18653 1.33334 2.74658 1.33334 3.86669 1.33334H6.00787C6.49705 1.33334 6.74164 1.33334 6.97182 1.3886C7.17589 1.4376 7.37098 1.51841 7.54992 1.62806C7.75176 1.75175 7.92471 1.9247 8.27061 2.2706L10.3961 4.39608C10.742 4.74199 10.9149 4.91494 11.0386 5.11677C11.1483 5.29572 11.2291 5.49081 11.2781 5.69488C11.3334 5.92506 11.3334 6.16965 11.3334 6.65883Z" stroke="#80808F" stroke-linecap="round" stroke-linejoin="round"/>
</svg>
